<?xml version="1.0" encoding="iso-8859-1"?>
<!-- Generator: Adobe Illustrator 21.1.0, SVG Export Plug-In . SVG Version: 6.00 Build 0)  -->
<svg version="1.1" xmlns="http://www.w3.org/2000/svg" xmlns:xlink="http://www.w3.org/1999/xlink" x="0px" y="0px"
	 viewBox="0 0 576 108" style="enable-background:new 0 0 576 108;" xml:space="preserve">
<g id="Logos">
	<g>
		<defs>
			<rect id="SVGID_1_" width="576" height="108"/>
		</defs>
		<clipPath id="SVGID_2_">
			<use xlink:href="#SVGID_1_"  style="overflow:visible;"/>
		</clipPath>
		<g style="clip-path:url(#SVGID_2_);">
			<g>
				<g>
					<path style="fill:#4C83C3;" d="M189.341,42.619c-0.747,0-1.443-0.09-2.088-0.271c-0.645-0.181-1.194-0.43-1.646-0.746
						c-0.453-0.317-0.809-0.69-1.069-1.121c-0.261-0.43-0.391-0.904-0.391-1.426c0-0.543,0.136-1.046,0.407-1.51
						s0.639-0.871,1.104-1.223c0.463-0.351,1.012-0.622,1.646-0.814c0.633-0.192,1.312-0.289,2.037-0.289
						c0.724,0,1.397,0.097,2.02,0.289c0.623,0.192,1.166,0.464,1.63,0.814c0.463,0.352,0.832,0.759,1.103,1.223
						s0.407,0.967,0.407,1.51c0,0.521-0.13,0.996-0.39,1.426c-0.261,0.431-0.617,0.804-1.069,1.121
						c-0.453,0.316-0.996,0.565-1.629,0.746C190.778,42.529,190.087,42.619,189.341,42.619z M186.285,48.628h6.246v34.388h-6.246
						V48.628z M186.285,48.628h6.246v34.388h-6.246V48.628z"/>
					<path style="fill:#4C83C3;" d="M228.929,60.102h-5.941c-0.362-2.136-1.188-3.915-2.478-5.336s-3.361-2.132-6.212-2.132
						c-3.893,0-6.677,1.812-8.351,5.438c-1.086,2.334-1.629,5.224-1.629,8.667c0,3.468,0.769,6.386,2.309,8.753
						c1.539,2.368,3.96,3.552,7.264,3.552c2.535,0,4.543-0.735,6.025-2.207c1.482-1.471,2.506-3.484,3.072-6.042h5.941
						c-0.679,4.571-2.376,7.915-5.092,10.031S217.647,84,213.415,84c-4.752,0-8.543-1.646-11.372-4.939
						c-2.829-3.292-4.243-7.417-4.243-12.373c0-6.064,1.55-10.783,4.65-14.155s7.049-5.059,11.848-5.059
						c4.096,0,7.428,0.945,9.997,2.835C226.863,52.198,228.408,55.463,228.929,60.102z"/>
					<path style="fill:#4C83C3;" d="M233.959,48.628h5.94v4.583c1.222-1.562,2.557-2.772,4.006-3.633
						c2.059-1.29,4.48-1.935,7.264-1.935c4.119,0,7.615,1.499,10.49,4.498c2.874,2.999,4.311,7.281,4.311,12.849
						c0,7.514-2.071,12.889-6.212,16.124c-2.625,2.037-5.681,3.056-9.166,3.056c-2.738,0-5.036-0.566-6.891-1.697
						c-1.086-0.656-2.297-1.766-3.632-3.327v17.652h-6.11V48.628z M259.724,65.533c0-2.738-0.419-5.103-1.256-7.095
						c-1.584-3.802-4.481-5.703-8.69-5.703c-4.232,0-7.129,2.015-8.69,6.043c-0.837,2.15-1.256,4.877-1.256,8.181
						c0,2.671,0.418,4.934,1.256,6.789c1.584,3.576,4.481,5.363,8.69,5.363c2.852,0,5.222-1.131,7.112-3.395
						C258.779,73.454,259.724,70.06,259.724,65.533z"/>
					<path style="fill:#4C83C3;" d="M300.728,60.102h-5.941c-0.362-2.136-1.188-3.915-2.478-5.336s-3.361-2.132-6.212-2.132
						c-3.893,0-6.677,1.812-8.351,5.438c-1.086,2.334-1.629,5.224-1.629,8.667c0,3.468,0.769,6.386,2.309,8.753
						c1.539,2.368,3.96,3.552,7.264,3.552c2.535,0,4.543-0.735,6.025-2.207c1.482-1.471,2.506-3.484,3.072-6.042h5.941
						c-0.679,4.571-2.376,7.915-5.092,10.031S289.445,84,285.214,84c-4.752,0-8.543-1.646-11.372-4.939
						c-2.829-3.292-4.243-7.417-4.243-12.373c0-6.064,1.55-10.783,4.65-14.155s7.049-5.059,11.848-5.059
						c4.096,0,7.428,0.945,9.997,2.835C298.662,52.198,300.207,55.463,300.728,60.102z"/>
				</g>
				<g>
					<g>
						<path style="fill:#4C83C3;" d="M312.399,45.176c-0.263,0-0.508-0.032-0.735-0.096c-0.228-0.063-0.421-0.151-0.58-0.263
							c-0.16-0.112-0.285-0.243-0.376-0.396c-0.092-0.151-0.138-0.318-0.138-0.502c0-0.191,0.048-0.368,0.144-0.532
							c0.096-0.163,0.225-0.307,0.389-0.431c0.163-0.123,0.356-0.219,0.58-0.287c0.223-0.067,0.462-0.102,0.717-0.102
							c0.255,0,0.492,0.034,0.711,0.102c0.219,0.068,0.411,0.164,0.574,0.287c0.163,0.124,0.293,0.268,0.389,0.431
							c0.096,0.164,0.144,0.341,0.144,0.532c0,0.184-0.046,0.351-0.138,0.502c-0.092,0.152-0.217,0.283-0.377,0.396
							c-0.159,0.111-0.351,0.199-0.574,0.263S312.662,45.176,312.399,45.176z M311.322,47.292h2.2v12.114h-2.2V47.292z
							 M311.322,47.292h2.2v12.114h-2.2V47.292z"/>
						<path style="fill:#4C83C3;" d="M316.751,47.244h2.045v1.723c0.606-0.71,1.249-1.22,1.928-1.531
							c0.679-0.311,1.433-0.466,2.264-0.466c1.82,0,3.05,0.602,3.688,1.806c0.351,0.653,0.527,1.595,0.527,2.822v7.809h-2.2v-7.665
							c0-0.742-0.116-1.34-0.347-1.794c-0.382-0.758-1.076-1.136-2.081-1.136c-0.51,0-0.929,0.048-1.256,0.143
							c-0.59,0.168-1.108,0.503-1.554,1.005c-0.359,0.398-0.592,0.812-0.7,1.237c-0.108,0.427-0.162,1.039-0.162,1.836v6.374h-2.152
							V47.244z"/>
						<path style="fill:#4C83C3;" d="M330.707,43.849h2.177v3.396h2.045v1.675h-2.045v7.932c0,0.422,0.151,0.708,0.454,0.859
							c0.167,0.08,0.447,0.12,0.837,0.12c0.104,0,0.215-0.002,0.335-0.006c0.119-0.004,0.259-0.015,0.418-0.03v1.612
							c-0.248,0.072-0.504,0.122-0.771,0.149c-0.267,0.028-0.556,0.042-0.867,0.042c-1.005,0-1.687-0.243-2.045-0.729
							c-0.359-0.486-0.539-1.119-0.539-1.899v-8.051h-1.734v-1.675h1.734V43.849z"/>
						<path style="fill:#4C83C3;" d="M346.754,49.146c0.431,0.614,0.718,1.332,0.861,2.153c0.127,0.558,0.191,1.45,0.191,2.679
							h-9.387c0.04,1.235,0.347,2.226,0.921,2.972c0.574,0.745,1.463,1.118,2.667,1.118c1.125,0,2.021-0.352,2.691-1.053
							c0.383-0.414,0.653-0.889,0.813-1.423h2.117c-0.056,0.446-0.241,0.944-0.556,1.494c-0.315,0.551-0.667,0.997-1.058,1.34
							c-0.654,0.605-1.463,1.017-2.428,1.231c-0.518,0.12-1.104,0.18-1.758,0.18c-1.595,0-2.946-0.55-4.054-1.65
							c-1.108-1.101-1.663-2.643-1.663-4.628c0-1.953,0.558-3.54,1.674-4.76s2.575-1.829,4.377-1.829
							c0.909,0,1.79,0.201,2.643,0.604S346.307,48.5,346.754,49.146z M345.594,52.351c-0.088-0.885-0.292-1.594-0.61-2.129
							c-0.59-0.98-1.575-1.471-2.954-1.471c-0.988,0-1.817,0.339-2.487,1.017c-0.669,0.678-1.024,1.539-1.064,2.583H345.594z"/>
						<path style="fill:#4C83C3;" d="M350.46,47.244h2.045v2.093c0.167-0.406,0.578-0.902,1.232-1.488
							c0.653-0.586,1.407-0.879,2.26-0.879c0.04,0,0.107,0.004,0.203,0.012s0.259,0.023,0.49,0.048v2.152
							c-0.127-0.023-0.245-0.04-0.353-0.048c-0.108-0.008-0.226-0.012-0.353-0.012c-1.084,0-1.917,0.333-2.5,0.998
							c-0.582,0.666-0.873,1.43-0.873,2.29v6.996h-2.153V47.244z"/>
						<path style="fill:#4C83C3;" d="M358.61,47.244h2.045v1.723c0.606-0.71,1.249-1.22,1.928-1.531
							c0.679-0.311,1.433-0.466,2.264-0.466c1.82,0,3.05,0.602,3.688,1.806c0.351,0.653,0.527,1.595,0.527,2.822v7.809h-2.2v-7.665
							c0-0.742-0.116-1.34-0.347-1.794c-0.382-0.758-1.076-1.136-2.081-1.136c-0.51,0-0.929,0.048-1.256,0.143
							c-0.59,0.168-1.108,0.503-1.554,1.005c-0.359,0.398-0.592,0.812-0.7,1.237c-0.108,0.427-0.162,1.039-0.162,1.836v6.374h-2.152
							V47.244z"/>
						<path style="fill:#4C83C3;" d="M379.031,52.028c0.494-0.056,0.825-0.252,0.992-0.586c0.096-0.184,0.144-0.443,0.144-0.777
							c0-0.702-0.261-1.21-0.783-1.525c-0.522-0.314-1.27-0.472-2.242-0.472c-1.124,0-1.921,0.286-2.392,0.86
							c-0.263,0.319-0.435,0.794-0.514,1.423h-2.009c0.04-1.498,0.552-2.541,1.537-3.127c0.985-0.586,2.127-0.879,3.426-0.879
							c1.507,0,2.73,0.271,3.671,0.813c0.933,0.55,1.399,1.399,1.399,2.547v7.008c0,0.215,0.046,0.387,0.138,0.515
							c0.091,0.127,0.285,0.191,0.58,0.191c0.095,0,0.203-0.007,0.323-0.019s0.247-0.029,0.383-0.054v1.519
							c-0.335,0.088-0.59,0.144-0.766,0.168c-0.175,0.023-0.415,0.035-0.717,0.035c-0.742,0-1.28-0.251-1.615-0.753
							c-0.175-0.263-0.299-0.638-0.371-1.124c-0.438,0.55-1.068,1.024-1.889,1.423c-0.821,0.398-1.726,0.598-2.715,0.598
							c-1.188,0-2.158-0.343-2.912-1.028s-1.13-1.542-1.13-2.571c0-1.124,0.371-1.997,1.112-2.618
							c0.741-0.622,1.714-1.005,2.918-1.148L379.031,52.028z M376.113,58.079c0.757,0,1.491-0.168,2.2-0.503
							c1.196-0.55,1.794-1.454,1.794-2.714v-1.65c-0.263,0.159-0.602,0.293-1.017,0.4s-0.821,0.186-1.22,0.233l-1.304,0.155
							c-0.781,0.096-1.367,0.251-1.758,0.467c-0.662,0.351-0.992,0.917-0.992,1.697c0,0.591,0.227,1.057,0.682,1.399
							C374.953,57.907,375.491,58.079,376.113,58.079z"/>
						<path style="fill:#4C83C3;" d="M386.019,43.849h2.177v3.396h2.045v1.675h-2.045v7.932c0,0.422,0.151,0.708,0.454,0.859
							c0.167,0.08,0.447,0.12,0.837,0.12c0.104,0,0.215-0.002,0.335-0.006c0.119-0.004,0.259-0.015,0.418-0.03v1.612
							c-0.248,0.072-0.504,0.122-0.771,0.149c-0.267,0.028-0.556,0.042-0.867,0.042c-1.005,0-1.687-0.243-2.045-0.729
							c-0.359-0.486-0.539-1.119-0.539-1.899v-8.051h-1.734v-1.675h1.734V43.849z"/>
						<path style="fill:#4C83C3;" d="M393.386,45.176c-0.263,0-0.508-0.032-0.735-0.096c-0.228-0.063-0.421-0.151-0.58-0.263
							c-0.16-0.112-0.285-0.243-0.376-0.396c-0.092-0.151-0.138-0.318-0.138-0.502c0-0.191,0.048-0.368,0.144-0.532
							c0.096-0.163,0.225-0.307,0.389-0.431c0.163-0.123,0.356-0.219,0.58-0.287c0.223-0.067,0.462-0.102,0.717-0.102
							c0.255,0,0.492,0.034,0.711,0.102c0.219,0.068,0.411,0.164,0.574,0.287c0.163,0.124,0.293,0.268,0.389,0.431
							c0.096,0.164,0.144,0.341,0.144,0.532c0,0.184-0.046,0.351-0.138,0.502c-0.092,0.152-0.217,0.283-0.377,0.396
							c-0.159,0.111-0.351,0.199-0.574,0.263S393.65,45.176,393.386,45.176z M392.31,47.292h2.2v12.114h-2.2V47.292z M392.31,47.292
							h2.2v12.114h-2.2V47.292z"/>
						<path style="fill:#4C83C3;" d="M408.852,53.068c0,1.961-0.502,3.581-1.507,4.861c-1.004,1.279-2.563,1.919-4.676,1.919
							c-1.762,0-3.161-0.565-4.197-1.698c-1.037-1.132-1.555-2.65-1.555-4.556c0-2.049,0.546-3.68,1.638-4.892
							c1.092-1.211,2.559-1.817,4.401-1.817c1.65,0,3.045,0.522,4.186,1.566C408.281,49.497,408.852,51.035,408.852,53.068z
							 M406.604,53.128c0-1.14-0.192-2.064-0.575-2.774c-0.607-1.124-1.653-1.686-3.138-1.686c-1.317,0-2.276,0.478-2.875,1.435
							c-0.599,0.957-0.898,2.108-0.898,3.456c0,1.291,0.299,2.37,0.898,3.234c0.599,0.865,1.549,1.298,2.851,1.298
							c1.429,0,2.41-0.515,2.94-1.543C406.338,55.52,406.604,54.38,406.604,53.128z"/>
						<path style="fill:#4C83C3;" d="M411.438,47.244h2.045v1.723c0.606-0.71,1.249-1.22,1.928-1.531
							c0.679-0.311,1.433-0.466,2.264-0.466c1.82,0,3.05,0.602,3.688,1.806c0.351,0.653,0.527,1.595,0.527,2.822v7.809h-2.2v-7.665
							c0-0.742-0.116-1.34-0.347-1.794c-0.382-0.758-1.076-1.136-2.081-1.136c-0.51,0-0.929,0.048-1.256,0.143
							c-0.59,0.168-1.108,0.503-1.554,1.005c-0.359,0.398-0.592,0.812-0.7,1.237c-0.108,0.427-0.162,1.039-0.162,1.836v6.374h-2.152
							V47.244z"/>
						<path style="fill:#4C83C3;" d="M431.859,52.028c0.494-0.056,0.825-0.252,0.992-0.586c0.096-0.184,0.144-0.443,0.144-0.777
							c0-0.702-0.261-1.21-0.783-1.525c-0.522-0.314-1.27-0.472-2.242-0.472c-1.124,0-1.921,0.286-2.392,0.86
							c-0.263,0.319-0.435,0.794-0.514,1.423h-2.009c0.04-1.498,0.552-2.541,1.537-3.127c0.985-0.586,2.127-0.879,3.426-0.879
							c1.507,0,2.73,0.271,3.671,0.813c0.933,0.55,1.399,1.399,1.399,2.547v7.008c0,0.215,0.046,0.387,0.138,0.515
							c0.091,0.127,0.285,0.191,0.58,0.191c0.095,0,0.203-0.007,0.323-0.019s0.247-0.029,0.383-0.054v1.519
							c-0.335,0.088-0.59,0.144-0.766,0.168c-0.175,0.023-0.415,0.035-0.717,0.035c-0.742,0-1.28-0.251-1.615-0.753
							c-0.175-0.263-0.299-0.638-0.371-1.124c-0.438,0.55-1.068,1.024-1.889,1.423c-0.821,0.398-1.726,0.598-2.715,0.598
							c-1.188,0-2.158-0.343-2.912-1.028s-1.13-1.542-1.13-2.571c0-1.124,0.371-1.997,1.112-2.618
							c0.741-0.622,1.714-1.005,2.918-1.148L431.859,52.028z M428.941,58.079c0.757,0,1.491-0.168,2.2-0.503
							c1.196-0.55,1.794-1.454,1.794-2.714v-1.65c-0.263,0.159-0.602,0.293-1.017,0.4s-0.821,0.186-1.22,0.233l-1.304,0.155
							c-0.781,0.096-1.367,0.251-1.758,0.467c-0.662,0.351-0.992,0.917-0.992,1.697c0,0.591,0.227,1.057,0.682,1.399
							C427.781,57.907,428.319,58.079,428.941,58.079z"/>
						<path style="fill:#4C83C3;" d="M438.619,42.712h2.153v16.694h-2.153V42.712z"/>
						<path style="fill:#4C83C3;" d="M461.387,51.334h-2.093c-0.127-0.752-0.418-1.379-0.873-1.88
							c-0.454-0.5-1.184-0.751-2.188-0.751c-1.372,0-2.352,0.639-2.942,1.916c-0.383,0.822-0.574,1.84-0.574,3.054
							c0,1.221,0.271,2.249,0.813,3.083c0.542,0.834,1.395,1.251,2.559,1.251c0.893,0,1.6-0.259,2.123-0.777
							c0.522-0.518,0.883-1.228,1.082-2.128h2.093c-0.239,1.61-0.837,2.788-1.794,3.533c-0.957,0.746-2.18,1.118-3.671,1.118
							c-1.674,0-3.01-0.58-4.006-1.74c-0.997-1.159-1.495-2.612-1.495-4.358c0-2.137,0.546-3.799,1.638-4.986
							c1.092-1.188,2.483-1.782,4.174-1.782c1.443,0,2.617,0.333,3.521,0.999C460.66,48.55,461.204,49.7,461.387,51.334z"/>
						<path style="fill:#4C83C3;" d="M474.92,53.068c0,1.961-0.502,3.581-1.507,4.861c-1.004,1.279-2.563,1.919-4.676,1.919
							c-1.762,0-3.161-0.565-4.197-1.698c-1.037-1.132-1.555-2.65-1.555-4.556c0-2.049,0.546-3.68,1.638-4.892
							c1.092-1.211,2.559-1.817,4.401-1.817c1.65,0,3.045,0.522,4.186,1.566C474.35,49.497,474.92,51.035,474.92,53.068z
							 M472.672,53.128c0-1.14-0.192-2.064-0.575-2.774c-0.607-1.124-1.653-1.686-3.138-1.686c-1.317,0-2.276,0.478-2.875,1.435
							c-0.599,0.957-0.898,2.108-0.898,3.456c0,1.291,0.299,2.37,0.898,3.234c0.599,0.865,1.549,1.298,2.851,1.298
							c1.429,0,2.41-0.515,2.94-1.543C472.406,55.52,472.672,54.38,472.672,53.128z"/>
						<path style="fill:#4C83C3;" d="M477.566,42.712h2.153v16.694h-2.153V42.712z"/>
						<path style="fill:#4C83C3;" d="M482.936,42.712h2.153v16.694h-2.153V42.712z"/>
						<path style="fill:#4C83C3;" d="M498.306,49.146c0.431,0.614,0.718,1.332,0.861,2.153c0.127,0.558,0.191,1.45,0.191,2.679
							h-9.387c0.04,1.235,0.347,2.226,0.921,2.972c0.574,0.745,1.463,1.118,2.667,1.118c1.125,0,2.021-0.352,2.691-1.053
							c0.383-0.414,0.653-0.889,0.813-1.423h2.117c-0.056,0.446-0.241,0.944-0.556,1.494c-0.315,0.551-0.667,0.997-1.058,1.34
							c-0.654,0.605-1.463,1.017-2.428,1.231c-0.518,0.12-1.104,0.18-1.758,0.18c-1.595,0-2.946-0.55-4.054-1.65
							c-1.108-1.101-1.663-2.643-1.663-4.628c0-1.953,0.558-3.54,1.674-4.76s2.575-1.829,4.377-1.829
							c0.909,0,1.79,0.201,2.643,0.604S497.86,48.5,498.306,49.146z M497.147,52.351c-0.088-0.885-0.292-1.594-0.61-2.129
							c-0.59-0.98-1.575-1.471-2.954-1.471c-0.988,0-1.817,0.339-2.487,1.017c-0.669,0.678-1.024,1.539-1.064,2.583H497.147z"/>
						<path style="fill:#4C83C3;" d="M509.243,47.723c0.407,0.271,0.821,0.658,1.244,1.16v-1.53h1.985v11.062
							c0,1.546-0.239,2.766-0.718,3.659c-0.893,1.65-2.579,2.476-5.058,2.476c-1.379,0-2.54-0.293-3.48-0.879
							c-0.941-0.587-1.467-1.506-1.579-2.757h2.188c0.104,0.554,0.311,0.979,0.622,1.275c0.486,0.457,1.251,0.686,2.296,0.686
							c1.65,0,2.73-0.556,3.241-1.666c0.303-0.655,0.442-1.821,0.418-3.5c-0.431,0.622-0.949,1.084-1.555,1.388
							c-0.606,0.303-1.407,0.454-2.404,0.454c-1.387,0-2.601-0.467-3.641-1.399s-1.561-2.479-1.561-4.64
							c0-2.041,0.524-3.631,1.572-4.771c1.048-1.14,2.314-1.71,3.797-1.71C507.617,47.029,508.493,47.261,509.243,47.723z
							 M507.001,48.847c-1.517,0-2.555,0.672-3.114,2.016c-0.295,0.716-0.443,1.654-0.443,2.815c0,1.367,0.293,2.409,0.88,3.124
							c0.587,0.716,1.375,1.074,2.366,1.074c1.55,0,2.64-0.664,3.271-1.992c0.351-0.747,0.527-1.618,0.527-2.612
							c0-1.502-0.327-2.615-0.982-3.339C508.849,49.209,508.015,48.847,507.001,48.847z"/>
						<path style="fill:#4C83C3;" d="M516.774,45.176c-0.263,0-0.508-0.032-0.735-0.096c-0.228-0.063-0.421-0.151-0.58-0.263
							c-0.16-0.112-0.285-0.243-0.376-0.396c-0.092-0.151-0.138-0.318-0.138-0.502c0-0.191,0.048-0.368,0.144-0.532
							c0.096-0.163,0.225-0.307,0.389-0.431c0.163-0.123,0.356-0.219,0.58-0.287c0.223-0.067,0.462-0.102,0.717-0.102
							c0.255,0,0.492,0.034,0.711,0.102c0.219,0.068,0.411,0.164,0.574,0.287c0.163,0.124,0.293,0.268,0.389,0.431
							c0.096,0.164,0.144,0.341,0.144,0.532c0,0.184-0.046,0.351-0.138,0.502c-0.092,0.152-0.217,0.283-0.377,0.396
							c-0.159,0.111-0.351,0.199-0.574,0.263S517.037,45.176,516.774,45.176z M515.698,47.292h2.2v12.114h-2.2V47.292z
							 M515.698,47.292h2.2v12.114h-2.2V47.292z"/>
						<path style="fill:#4C83C3;" d="M527.891,52.028c0.494-0.056,0.825-0.252,0.992-0.586c0.096-0.184,0.144-0.443,0.144-0.777
							c0-0.702-0.261-1.21-0.783-1.525c-0.522-0.314-1.27-0.472-2.242-0.472c-1.124,0-1.921,0.286-2.392,0.86
							c-0.263,0.319-0.435,0.794-0.514,1.423h-2.009c0.04-1.498,0.552-2.541,1.537-3.127c0.985-0.586,2.127-0.879,3.426-0.879
							c1.507,0,2.73,0.271,3.671,0.813c0.933,0.55,1.399,1.399,1.399,2.547v7.008c0,0.215,0.046,0.387,0.138,0.515
							c0.091,0.127,0.285,0.191,0.58,0.191c0.095,0,0.203-0.007,0.323-0.019s0.247-0.029,0.383-0.054v1.519
							c-0.335,0.088-0.59,0.144-0.766,0.168c-0.175,0.023-0.415,0.035-0.717,0.035c-0.742,0-1.28-0.251-1.615-0.753
							c-0.175-0.263-0.299-0.638-0.371-1.124c-0.438,0.55-1.068,1.024-1.889,1.423c-0.821,0.398-1.726,0.598-2.715,0.598
							c-1.188,0-2.158-0.343-2.912-1.028s-1.13-1.542-1.13-2.571c0-1.124,0.371-1.997,1.112-2.618
							c0.741-0.622,1.714-1.005,2.918-1.148L527.891,52.028z M524.973,58.079c0.757,0,1.491-0.168,2.2-0.503
							c1.196-0.55,1.794-1.454,1.794-2.714v-1.65c-0.263,0.159-0.602,0.293-1.017,0.4s-0.821,0.186-1.22,0.233l-1.304,0.155
							c-0.781,0.096-1.367,0.251-1.758,0.467c-0.662,0.351-0.992,0.917-0.992,1.697c0,0.591,0.227,1.057,0.682,1.399
							C523.813,57.907,524.351,58.079,524.973,58.079z"/>
						<path style="fill:#4C83C3;" d="M534.879,43.849h2.177v3.396h2.045v1.675h-2.045v7.932c0,0.422,0.151,0.708,0.454,0.859
							c0.167,0.08,0.447,0.12,0.837,0.12c0.104,0,0.215-0.002,0.335-0.006c0.119-0.004,0.259-0.015,0.418-0.03v1.612
							c-0.248,0.072-0.504,0.122-0.771,0.149c-0.267,0.028-0.556,0.042-0.867,0.042c-1.005,0-1.687-0.243-2.045-0.729
							c-0.359-0.486-0.539-1.119-0.539-1.899v-8.051h-1.734v-1.675h1.734V43.849z"/>
						<path style="fill:#4C83C3;" d="M550.926,49.146c0.431,0.614,0.718,1.332,0.861,2.153c0.127,0.558,0.191,1.45,0.191,2.679
							h-9.387c0.04,1.235,0.347,2.226,0.921,2.972c0.574,0.745,1.463,1.118,2.667,1.118c1.125,0,2.021-0.352,2.691-1.053
							c0.383-0.414,0.653-0.889,0.813-1.423h2.117c-0.056,0.446-0.241,0.944-0.556,1.494c-0.315,0.551-0.667,0.997-1.058,1.34
							c-0.654,0.605-1.463,1.017-2.428,1.231c-0.518,0.12-1.104,0.18-1.758,0.18c-1.595,0-2.946-0.55-4.054-1.65
							c-1.108-1.101-1.663-2.643-1.663-4.628c0-1.953,0.558-3.54,1.674-4.76s2.575-1.829,4.377-1.829
							c0.909,0,1.79,0.201,2.643,0.604S550.48,48.5,550.926,49.146z M549.767,52.351c-0.088-0.885-0.292-1.594-0.61-2.129
							c-0.59-0.98-1.575-1.471-2.954-1.471c-0.988,0-1.817,0.339-2.487,1.017c-0.669,0.678-1.024,1.539-1.064,2.583H549.767z"/>
					</g>
					<g>
						<path style="fill:#4C83C3;" d="M311.364,71.569h2.093v1.614c0.431-0.55,0.901-0.976,1.411-1.279
							c0.725-0.454,1.579-0.682,2.559-0.682c1.451,0,2.683,0.528,3.695,1.585c1.013,1.057,1.519,2.564,1.519,4.526
							c0,2.646-0.729,4.54-2.188,5.68c-0.925,0.718-2.001,1.076-3.229,1.076c-0.964,0-1.774-0.199-2.427-0.598
							c-0.383-0.231-0.81-0.622-1.28-1.172v6.219h-2.152V71.569z M320.441,77.525c0-0.965-0.148-1.798-0.443-2.5
							c-0.558-1.339-1.578-2.009-3.061-2.009c-1.491,0-2.511,0.71-3.062,2.129c-0.295,0.757-0.442,1.718-0.442,2.882
							c0,0.94,0.147,1.738,0.442,2.392c0.558,1.26,1.579,1.89,3.062,1.89c1.004,0,1.839-0.398,2.505-1.196
							C320.108,80.315,320.441,79.119,320.441,77.525z"/>
						<path style="fill:#4C83C3;" d="M325.238,71.522h2.045v2.093c0.167-0.406,0.578-0.902,1.232-1.488
							c0.653-0.586,1.407-0.879,2.26-0.879c0.04,0,0.107,0.004,0.203,0.012s0.259,0.023,0.49,0.048v2.152
							c-0.127-0.023-0.245-0.04-0.353-0.048c-0.108-0.008-0.226-0.012-0.353-0.012c-1.084,0-1.917,0.333-2.5,0.998
							c-0.582,0.666-0.873,1.43-0.873,2.29v6.996h-2.153V71.522z"/>
						<path style="fill:#4C83C3;" d="M344.401,77.346c0,1.961-0.502,3.581-1.507,4.861c-1.004,1.279-2.563,1.919-4.676,1.919
							c-1.762,0-3.161-0.565-4.197-1.698c-1.037-1.132-1.555-2.65-1.555-4.556c0-2.049,0.546-3.68,1.638-4.892
							c1.092-1.211,2.559-1.817,4.401-1.817c1.65,0,3.045,0.522,4.186,1.566C343.831,73.774,344.401,75.313,344.401,77.346z
							 M342.153,77.405c0-1.14-0.192-2.064-0.575-2.774c-0.607-1.124-1.653-1.686-3.138-1.686c-1.317,0-2.276,0.478-2.875,1.435
							c-0.599,0.957-0.898,2.108-0.898,3.456c0,1.291,0.299,2.37,0.898,3.234c0.599,0.865,1.549,1.298,2.851,1.298
							c1.429,0,2.41-0.515,2.94-1.543C341.887,79.797,342.153,78.657,342.153,77.405z"/>
						<path style="fill:#4C83C3;" d="M354.253,72c0.407,0.271,0.821,0.658,1.244,1.16v-1.53h1.985v11.062
							c0,1.546-0.239,2.766-0.718,3.659c-0.893,1.65-2.579,2.476-5.058,2.476c-1.379,0-2.54-0.293-3.48-0.879
							c-0.941-0.587-1.467-1.506-1.579-2.757h2.188c0.104,0.554,0.311,0.979,0.622,1.275c0.486,0.457,1.251,0.686,2.296,0.686
							c1.65,0,2.73-0.556,3.241-1.666c0.303-0.655,0.442-1.821,0.418-3.5c-0.431,0.622-0.949,1.084-1.555,1.388
							c-0.606,0.303-1.407,0.454-2.404,0.454c-1.387,0-2.601-0.467-3.641-1.399s-1.561-2.479-1.561-4.64
							c0-2.041,0.524-3.631,1.572-4.771c1.048-1.14,2.314-1.71,3.797-1.71C352.627,71.307,353.504,71.538,354.253,72z
							 M352.011,73.124c-1.517,0-2.555,0.672-3.114,2.016c-0.295,0.716-0.443,1.654-0.443,2.815c0,1.367,0.293,2.409,0.88,3.124
							c0.587,0.716,1.375,1.074,2.366,1.074c1.55,0,2.64-0.664,3.271-1.992c0.351-0.747,0.527-1.618,0.527-2.612
							c0-1.502-0.327-2.615-0.982-3.339C353.86,73.486,353.025,73.124,352.011,73.124z"/>
						<path style="fill:#4C83C3;" d="M360.716,71.522h2.045v2.093c0.167-0.406,0.578-0.902,1.232-1.488
							c0.653-0.586,1.407-0.879,2.26-0.879c0.04,0,0.107,0.004,0.203,0.012s0.259,0.023,0.49,0.048v2.152
							c-0.127-0.023-0.245-0.04-0.353-0.048c-0.108-0.008-0.226-0.012-0.353-0.012c-1.084,0-1.917,0.333-2.5,0.998
							c-0.582,0.666-0.873,1.43-0.873,2.29v6.996h-2.153V71.522z"/>
						<path style="fill:#4C83C3;" d="M375.611,76.306c0.494-0.056,0.825-0.252,0.992-0.586c0.096-0.184,0.144-0.443,0.144-0.777
							c0-0.702-0.261-1.21-0.783-1.525c-0.522-0.314-1.27-0.472-2.242-0.472c-1.124,0-1.921,0.286-2.392,0.86
							c-0.263,0.319-0.435,0.794-0.514,1.423h-2.009c0.04-1.498,0.552-2.541,1.537-3.127c0.985-0.586,2.127-0.879,3.426-0.879
							c1.507,0,2.73,0.271,3.671,0.813c0.933,0.55,1.399,1.399,1.399,2.547v7.008c0,0.215,0.046,0.387,0.138,0.515
							c0.091,0.127,0.285,0.191,0.58,0.191c0.095,0,0.203-0.007,0.323-0.019s0.247-0.029,0.383-0.054v1.519
							c-0.335,0.088-0.59,0.144-0.766,0.168c-0.175,0.023-0.415,0.035-0.717,0.035c-0.742,0-1.28-0.251-1.615-0.753
							c-0.175-0.263-0.299-0.638-0.371-1.124c-0.438,0.55-1.068,1.024-1.889,1.423c-0.821,0.398-1.726,0.598-2.715,0.598
							c-1.188,0-2.158-0.343-2.912-1.028s-1.13-1.542-1.13-2.571c0-1.124,0.371-1.997,1.112-2.618
							c0.741-0.622,1.714-1.005,2.918-1.148L375.611,76.306z M372.693,82.356c0.757,0,1.491-0.168,2.2-0.503
							c1.196-0.55,1.794-1.454,1.794-2.714v-1.65c-0.263,0.159-0.602,0.293-1.017,0.4s-0.821,0.186-1.22,0.233l-1.304,0.155
							c-0.781,0.096-1.367,0.251-1.758,0.467c-0.662,0.351-0.992,0.917-0.992,1.697c0,0.591,0.227,1.057,0.682,1.399
							C371.532,82.185,372.07,82.356,372.693,82.356z"/>
						<path style="fill:#4C83C3;" d="M382.35,71.522h2.128v1.723c0.511-0.599,0.974-1.032,1.389-1.304
							c0.71-0.462,1.517-0.693,2.419-0.693c1.022,0,1.844,0.239,2.467,0.717c0.352,0.271,0.671,0.67,0.958,1.196
							c0.478-0.646,1.039-1.126,1.684-1.441c0.645-0.314,1.37-0.472,2.174-0.472c1.72,0,2.89,0.59,3.511,1.77
							c0.334,0.638,0.501,1.495,0.501,2.571v8.096h-2.236v-8.455c0-0.805-0.212-1.358-0.638-1.662
							c-0.426-0.303-0.945-0.454-1.557-0.454c-0.843,0-1.569,0.268-2.177,0.801c-0.609,0.534-0.913,1.432-0.913,2.691v7.079h-2.2
							v-7.94c0-0.829-0.104-1.431-0.311-1.806c-0.327-0.566-0.937-0.849-1.83-0.849c-0.813,0-1.553,0.299-2.218,0.896
							s-0.999,1.679-0.999,3.24v6.458h-2.152V71.522z"/>
						<path style="fill:#4C83C3;" d="M402.734,71.522h2.128v1.723c0.511-0.599,0.974-1.032,1.389-1.304
							c0.71-0.462,1.517-0.693,2.419-0.693c1.022,0,1.844,0.239,2.467,0.717c0.352,0.271,0.671,0.67,0.958,1.196
							c0.478-0.646,1.039-1.126,1.684-1.441c0.645-0.314,1.37-0.472,2.174-0.472c1.72,0,2.89,0.59,3.511,1.77
							c0.334,0.638,0.501,1.495,0.501,2.571v8.096h-2.236v-8.455c0-0.805-0.212-1.358-0.638-1.662
							c-0.426-0.303-0.945-0.454-1.557-0.454c-0.843,0-1.569,0.268-2.177,0.801c-0.609,0.534-0.913,1.432-0.913,2.691v7.079h-2.2
							v-7.94c0-0.829-0.104-1.431-0.311-1.806c-0.327-0.566-0.937-0.849-1.83-0.849c-0.813,0-1.553,0.299-2.218,0.896
							s-0.999,1.679-0.999,3.24v6.458h-2.152V71.522z"/>
						<path style="fill:#4C83C3;" d="M424.145,69.453c-0.263,0-0.508-0.032-0.735-0.096c-0.228-0.063-0.421-0.151-0.58-0.263
							c-0.16-0.112-0.285-0.243-0.376-0.396c-0.092-0.151-0.138-0.318-0.138-0.502c0-0.191,0.048-0.368,0.144-0.532
							c0.096-0.163,0.225-0.307,0.389-0.431c0.163-0.123,0.356-0.219,0.58-0.287c0.223-0.067,0.462-0.102,0.717-0.102
							c0.255,0,0.492,0.034,0.711,0.102c0.219,0.068,0.411,0.164,0.574,0.287c0.163,0.124,0.293,0.268,0.389,0.431
							c0.096,0.164,0.144,0.341,0.144,0.532c0,0.184-0.046,0.351-0.138,0.502c-0.092,0.152-0.217,0.283-0.377,0.396
							c-0.159,0.111-0.351,0.199-0.574,0.263S424.408,69.453,424.145,69.453z M423.069,71.569h2.2v12.114h-2.2V71.569z
							 M423.069,71.569h2.2v12.114h-2.2V71.569z"/>
						<path style="fill:#4C83C3;" d="M428.498,71.522h2.045v1.723c0.606-0.71,1.249-1.22,1.928-1.531
							c0.679-0.311,1.433-0.466,2.264-0.466c1.82,0,3.05,0.602,3.688,1.806c0.351,0.653,0.527,1.595,0.527,2.822v7.809h-2.2v-7.665
							c0-0.742-0.116-1.34-0.347-1.794c-0.382-0.758-1.076-1.136-2.081-1.136c-0.51,0-0.929,0.048-1.256,0.143
							c-0.59,0.168-1.108,0.503-1.554,1.005c-0.359,0.398-0.592,0.812-0.7,1.237c-0.108,0.427-0.162,1.039-0.162,1.836v6.374h-2.152
							V71.522z"/>
						<path style="fill:#4C83C3;" d="M449.382,72c0.407,0.271,0.821,0.658,1.244,1.16v-1.53h1.985v11.062
							c0,1.546-0.239,2.766-0.718,3.659c-0.893,1.65-2.579,2.476-5.058,2.476c-1.379,0-2.54-0.293-3.48-0.879
							c-0.941-0.587-1.467-1.506-1.579-2.757h2.188c0.104,0.554,0.311,0.979,0.622,1.275c0.486,0.457,1.251,0.686,2.296,0.686
							c1.65,0,2.73-0.556,3.241-1.666c0.303-0.655,0.442-1.821,0.418-3.5c-0.431,0.622-0.949,1.084-1.555,1.388
							c-0.606,0.303-1.407,0.454-2.404,0.454c-1.387,0-2.601-0.467-3.641-1.399s-1.561-2.479-1.561-4.64
							c0-2.041,0.524-3.631,1.572-4.771c1.048-1.14,2.314-1.71,3.797-1.71C447.756,71.307,448.633,71.538,449.382,72z
							 M447.14,73.124c-1.517,0-2.555,0.672-3.114,2.016c-0.295,0.716-0.443,1.654-0.443,2.815c0,1.367,0.293,2.409,0.88,3.124
							c0.587,0.716,1.375,1.074,2.366,1.074c1.55,0,2.64-0.664,3.271-1.992c0.351-0.747,0.527-1.618,0.527-2.612
							c0-1.502-0.327-2.615-0.982-3.339C448.988,73.486,448.154,73.124,447.14,73.124z"/>
						<path style="fill:#4C83C3;" d="M473.238,75.611h-2.093c-0.127-0.752-0.418-1.379-0.873-1.88
							c-0.454-0.5-1.184-0.751-2.188-0.751c-1.372,0-2.352,0.639-2.942,1.916c-0.383,0.822-0.574,1.84-0.574,3.054
							c0,1.221,0.271,2.249,0.813,3.083c0.542,0.834,1.395,1.251,2.559,1.251c0.893,0,1.6-0.259,2.123-0.777
							c0.522-0.518,0.883-1.228,1.082-2.128h2.093c-0.239,1.61-0.837,2.788-1.794,3.533c-0.957,0.746-2.18,1.118-3.671,1.118
							c-1.674,0-3.01-0.58-4.006-1.74c-0.997-1.159-1.495-2.612-1.495-4.358c0-2.137,0.546-3.799,1.638-4.986
							c1.092-1.188,2.483-1.782,4.174-1.782c1.443,0,2.617,0.333,3.521,0.999C472.511,72.827,473.055,73.978,473.238,75.611z"/>
						<path style="fill:#4C83C3;" d="M486.771,77.346c0,1.961-0.502,3.581-1.507,4.861c-1.004,1.279-2.563,1.919-4.676,1.919
							c-1.762,0-3.161-0.565-4.197-1.698c-1.037-1.132-1.555-2.65-1.555-4.556c0-2.049,0.546-3.68,1.638-4.892
							c1.092-1.211,2.559-1.817,4.401-1.817c1.65,0,3.045,0.522,4.186,1.566C486.201,73.774,486.771,75.313,486.771,77.346z
							 M484.523,77.405c0-1.14-0.192-2.064-0.575-2.774c-0.607-1.124-1.653-1.686-3.138-1.686c-1.317,0-2.276,0.478-2.875,1.435
							c-0.599,0.957-0.898,2.108-0.898,3.456c0,1.291,0.299,2.37,0.898,3.234c0.599,0.865,1.549,1.298,2.851,1.298
							c1.429,0,2.41-0.515,2.94-1.543C484.258,79.797,484.523,78.657,484.523,77.405z"/>
						<path style="fill:#4C83C3;" d="M489.357,71.522h2.045v1.723c0.606-0.71,1.249-1.22,1.928-1.531
							c0.679-0.311,1.433-0.466,2.264-0.466c1.82,0,3.05,0.602,3.688,1.806c0.351,0.653,0.527,1.595,0.527,2.822v7.809h-2.2v-7.665
							c0-0.742-0.116-1.34-0.347-1.794c-0.382-0.758-1.076-1.136-2.081-1.136c-0.51,0-0.929,0.048-1.256,0.143
							c-0.59,0.168-1.108,0.503-1.554,1.005c-0.359,0.398-0.592,0.812-0.7,1.237c-0.108,0.427-0.162,1.039-0.162,1.836v6.374h-2.152
							V71.522z"/>
						<path style="fill:#4C83C3;" d="M503.313,68.126h2.177v3.396h2.045v1.675h-2.045v7.932c0,0.422,0.151,0.708,0.454,0.859
							c0.167,0.08,0.447,0.12,0.837,0.12c0.104,0,0.215-0.002,0.335-0.006c0.119-0.004,0.259-0.015,0.418-0.03v1.612
							c-0.248,0.072-0.504,0.122-0.771,0.149c-0.267,0.028-0.556,0.042-0.867,0.042c-1.005,0-1.687-0.243-2.045-0.729
							c-0.359-0.486-0.539-1.119-0.539-1.899v-8.051h-1.734v-1.675h1.734V68.126z"/>
						<path style="fill:#4C83C3;" d="M519.36,73.423c0.431,0.614,0.718,1.332,0.861,2.153c0.127,0.558,0.191,1.45,0.191,2.679
							h-9.387c0.04,1.235,0.347,2.226,0.921,2.972c0.574,0.745,1.463,1.118,2.667,1.118c1.125,0,2.021-0.352,2.691-1.053
							c0.383-0.414,0.653-0.889,0.813-1.423h2.117c-0.056,0.446-0.241,0.944-0.556,1.494c-0.315,0.551-0.667,0.997-1.058,1.34
							c-0.654,0.605-1.463,1.017-2.428,1.231c-0.518,0.12-1.104,0.18-1.758,0.18c-1.595,0-2.946-0.55-4.054-1.65
							c-1.108-1.101-1.663-2.643-1.663-4.628c0-1.953,0.558-3.54,1.674-4.76s2.575-1.829,4.377-1.829
							c0.909,0,1.79,0.201,2.643,0.604S518.914,72.777,519.36,73.423z M518.2,76.628c-0.088-0.885-0.292-1.594-0.61-2.129
							c-0.59-0.98-1.575-1.471-2.954-1.471c-0.988,0-1.817,0.339-2.487,1.017c-0.669,0.678-1.024,1.539-1.064,2.583H518.2z"/>
						<path style="fill:#4C83C3;" d="M524.312,79.869c0.063,0.678,0.243,1.199,0.538,1.566c0.541,0.662,1.479,0.992,2.816,0.992
							c0.795,0,1.496-0.165,2.1-0.496c0.605-0.331,0.907-0.843,0.907-1.536c0-0.519-0.243-0.913-0.729-1.185
							c-0.311-0.167-0.925-0.362-1.842-0.586l-1.71-0.406c-1.092-0.255-1.897-0.542-2.416-0.861
							c-0.925-0.55-1.387-1.315-1.387-2.296c0-1.148,0.438-2.079,1.315-2.792c0.877-0.714,2.053-1.07,3.528-1.07
							c1.929,0,3.32,0.538,4.173,1.614c0.534,0.678,0.793,1.411,0.777,2.2h-2.033c-0.04-0.462-0.211-0.881-0.514-1.256
							c-0.495-0.542-1.352-0.812-2.571-0.812c-0.813,0-1.429,0.147-1.848,0.442s-0.628,0.686-0.628,1.172
							c0,0.534,0.275,0.961,0.824,1.279c0.318,0.184,0.788,0.347,1.409,0.49l1.421,0.335c1.544,0.358,2.579,0.701,3.104,1.028
							c0.835,0.526,1.253,1.352,1.253,2.476c0,1.076-0.432,2.009-1.295,2.798s-2.179,1.185-3.946,1.185
							c-1.903,0-3.25-0.411-4.044-1.232c-0.793-0.82-1.218-1.837-1.273-3.049H524.312z"/>
						<path style="fill:#4C83C3;" d="M535.751,68.126h2.177v3.396h2.045v1.675h-2.045v7.932c0,0.422,0.151,0.708,0.454,0.859
							c0.167,0.08,0.447,0.12,0.837,0.12c0.104,0,0.215-0.002,0.335-0.006c0.119-0.004,0.259-0.015,0.418-0.03v1.612
							c-0.248,0.072-0.504,0.122-0.771,0.149c-0.267,0.028-0.556,0.042-0.867,0.042c-1.005,0-1.687-0.243-2.045-0.729
							c-0.359-0.486-0.539-1.119-0.539-1.899v-8.051h-1.734v-1.675h1.734V68.126z"/>
					</g>
				</g>
			</g>
			<g>
				<g>
					<path id="_x31__2_" style="fill:#4C83C3;" d="M23.64,92.53c-1.599,0-1.771,1.019-1.771,1.459c0,0.439,0.172,1.459,1.771,1.459
						c1.208,0,1.99-0.573,1.99-1.459C25.63,93.101,24.849,92.53,23.64,92.53z M23.64,94.571c-0.894,0-0.894-0.393-0.894-0.582
						s0-0.582,0.894-0.582c0.113,0,1.113,0.017,1.113,0.582C24.753,94.555,23.754,94.571,23.64,94.571z"/>
					<g>
						<g id="solve_2_">
							<path style="fill:#B22C1B;" d="M152.551,48.945l-11.079-0.001c4.882,3.645,7.641,7.431,8.204,11.256
								c0.448,3.059-0.51,6.15-2.846,9.189l-0.094,0.122c-4.247,5.415-12.916,9.508-16.448,11.015
								c-0.399,0.122-0.8,0.24-1.205,0.359h23.469c3.045,0,5.521-2.488,5.521-5.546V54.49
								C158.073,51.433,155.596,48.945,152.551,48.945z"/>
							<path style="fill:#B22C1B;" d="M138.979,49.14l-0.256-0.196h-15.222c-3.043,0-5.52,2.488-5.52,5.546v20.849
								c0,3.059,2.476,5.547,5.52,5.547h0.082l0.631-0.209c14.163-4.686,23.248-11.787,23.706-18.532
								C148.385,55.354,139.944,49.756,138.979,49.14z"/>
							<path id="Bill_2_" style="fill:#B22C1B;" d="M150.978,22.966c0.153-0.895,0.23-1.786,0.23-2.647
								c0-4.248-1.851-7.714-5.355-10.024c-4.687-3.088-11.415-3.188-15.997-0.231c-3.555,2.293-5.434,5.99-5.434,10.692
								c0,0.981,0.086,2.017,0.254,3.081c0.805,5.041,3.317,9.239,7.474,12.496c-2.113-0.573-4.873-0.847-6.068,1.092
								c-0.588,0.954-0.445,1.88,0.386,2.476c1.537,1.103,5.27,0.811,7.525-0.479l-1.547,3.605h3.159h0.218h0.971h0.221h5.821
								l-2.078-4.157c2.514,1.051,5.428,2.001,7.002,1.04c0.64-0.39,0.988-1.025,1.033-1.887c0.059-1.158-0.469-1.783-0.923-2.102
								c-0.792-0.561-2.089-0.702-3.859-0.416c0.183-0.15,0.358-0.3,0.532-0.454C146.898,32.953,149.926,29.154,150.978,22.966z
								 M127.233,38.838c-0.15-0.107-0.334-0.242-0.035-0.726c0.9-1.467,3.908-0.904,6.353,0.068
								C131.67,39.43,128.207,39.538,127.233,38.838z M147.117,36.99c0.188,0.133,0.399,0.363,0.369,0.963
								c-0.024,0.417-0.154,0.684-0.408,0.839c-0.593,0.363-2.114,0.434-5.962-1.19C143.463,36.82,146.127,36.292,147.117,36.99z
								 M139.466,36.802c-0.157,0.062-0.275,0.109-0.331,0.132l-0.458,0.159l-0.219,0.107l0.008,0.014l-0.756,0.313l1.172,0.525
								l1.836,3.667h-6.282l1.809-4.219l-0.658-0.392c-5.472-3.247-8.708-7.781-9.615-13.476c-0.156-0.981-0.236-1.942-0.236-2.858
								c0-4.247,1.671-7.569,4.832-9.608c4.165-2.686,10.293-2.594,14.565,0.224c3.118,2.057,4.765,5.151,4.765,8.95
								c0,0.774-0.071,1.585-0.21,2.409C148,32.67,140.885,36.193,139.466,36.802z"/>
							<path style="fill:#B22C1B;" d="M140.916,48.687l-0.09-0.063c-0.001-0.001-0.017-0.009-0.041-0.024
								c-0.372-0.216-3.168-1.966-3.77-5.573h-0.221h-0.971h-0.219c0.073,0.77,0.498,3.549,2.89,5.573
								c0.035,0.03,0.074,0.058,0.111,0.088c0.054,0.043,0.108,0.086,0.163,0.129l0.212,0l1.895-0.001l0.225,0L140.916,48.687z"/>
						</g>
						<g id="create_2_">
							<path style="fill:#FDBA12;" d="M103.092,48.946h-1.99l-0.009,0.214c-0.164,4.488-2.121,7.271-3.741,8.818
								c-1.564,1.494-3.098,2.151-3.45,2.215l-0.929,6.436h-9.058l-0.795-6.385c-6.814-2.612-7.073-9.773-7.149-11.182l-0.005-0.118
								l-1.997,0.001c-3.052,0-5.535,2.494-5.535,5.559v20.9c0,2.794,2.068,5.09,4.743,5.481h30.707
								c2.675-0.39,4.743-2.687,4.743-5.481v-20.9C108.628,51.44,106.145,48.946,103.092,48.946z M84.02,68.148h9.005v1.328H84.02
								V68.148z M84.02,70.692h9.005v1.328H84.02V70.692z M90.227,77.108h-3.546V75.78h3.546V77.108z M93.049,74.564h-9.005v-1.328
								h9.005V74.564z"/>
							<path style="fill:#FDBA12;" d="M83.885,55.478l5.162-2.113l-4.434-1.352l3.115-2.855l0.207-0.213H77.663v0.213
								c0.071,1.28,0.277,7.611,6.632,9.99l0.122,0.045l0.017,0.129l0.735,5.798h2.683v-7.003l1.422-1.169L83.885,55.478z"/>
							<path style="fill:#FDBA12;" d="M89.824,48.944l-0.181,0.215l-2.305,2.204l5.937,1.666l-5.31,2.182l4.17,1.169l-2.901,2.365
								v6.377h2.445l0.847-5.969l0.113-0.048c6.346-2.648,6.789-8.724,6.812-9.945v-0.215H89.824z"/>
							
								<rect x="99.861" y="41.061" transform="matrix(0.8945 -0.4472 0.4472 0.8945 -7.5732 51.3461)" style="fill:#FDBA12;" width="10.241" height="1.309"/>
							
								<rect x="95.973" y="35.825" transform="matrix(0.7476 -0.6641 0.6641 0.7476 1.3831 76.598)" style="fill:#FDBA12;" width="10.997" height="1.31"/>
							
								<rect x="90.187" y="31.658" transform="matrix(0.3967 -0.918 0.918 0.3967 28.0534 107.3075)" style="fill:#FDBA12;" width="10.943" height="1.31"/>
							<rect x="87.876" y="24.993" style="fill:#FDBA12;" width="1.31" height="11.237"/>
							<polygon style="fill:#FDBA12;" points="79.922,27.229 79.836,27.031 78.632,27.551 82.886,37.396 82.974,37.596 
								84.176,37.076 							"/>
							
								<rect x="74.937" y="30.981" transform="matrix(0.6631 -0.7485 0.7485 0.6631 -1.839 68.8727)" style="fill:#FDBA12;" width="1.31" height="10.997"/>
							
								<rect x="71.426" y="36.595" transform="matrix(0.4467 -0.8947 0.8947 0.4467 2.5596 87.5701)" style="fill:#FDBA12;" width="1.309" height="10.241"/>
						</g>
						<g>
							<path id="_x34__2_" style="fill:#4C83C3;" d="M42.052,86.008c-1.89,0-3.427,1.275-3.427,2.843
								c0,1.568,1.537,2.843,3.427,2.843c1.89,0,3.429-1.275,3.429-2.843C45.481,87.283,43.943,86.008,42.052,86.008z
								 M42.052,90.601c-1.287,0-2.333-0.785-2.333-1.75c0-0.965,1.047-1.75,2.333-1.75c1.287,0,2.335,0.785,2.335,1.75
								C44.387,89.816,43.339,90.601,42.052,90.601z"/>
							<path id="_x33__2_" style="fill:#4C83C3;" d="M37.919,90.995c-0.135-1.328-1.489-2.282-3.017-2.127
								c-1.529,0.155-2.662,1.362-2.527,2.69c0.13,1.281,1.39,2.092,2.996,1.929C36.977,93.324,38.049,92.275,37.919,90.995z
								 M35.272,92.501c-0.846,0.086-1.794-0.205-1.88-1.046c-0.08-0.784,0.642-1.502,1.611-1.601
								c0.967-0.098,1.819,0.46,1.899,1.244C36.987,91.94,36.117,92.415,35.272,92.501z"/>
							<path id="_x32__2_" style="fill:#4C83C3;" d="M28.998,91c-1.505,0-2.438,0.707-2.438,1.846c0,1.139,0.933,1.846,2.438,1.846
								c1.503,0,2.437-0.707,2.437-1.846C31.435,91.708,30.502,91,28.998,91z M28.997,93.713c-0.675,0-1.483-0.149-1.483-0.866
								c0-0.715,0.807-0.864,1.483-0.864c0.677,0,1.484,0.149,1.484,0.864C30.481,93.564,29.674,93.713,28.997,93.713z"/>
							<path style="fill:#4C83C3;" d="M63.05,70.348c-0.107-1.824-1.331-3.525-3.63-5.059c-0.03-0.02-0.056-0.041-0.086-0.062
								c-0.005-0.003-0.008-0.006-0.013-0.01l-0.115-0.076v0.2v0.059v1.124v0.256c0.051,0.033,0.133,0.089,0.215,0.148
								c0.653,0.463,2.099,1.667,2.267,3.372c0.139,1.41-0.626,2.861-2.267,4.316c-0.02,0.02-0.038,0.038-0.059,0.056l-0.156,0.138
								l-0.109,0.095l0.109,0.042l0.215,0.086l0.003,0.001c0.024,0.011,2.397,1.012,1.267,4.522
								c-0.017,0.054-1.638,5.447-8.242,5.447h-0.056c-0.036,0.006-4.062,0.209-9.414-2.822l-0.147-0.082l-0.116,0.121
								c-0.026,0.027-2.613,2.686-5.565,2.625c-0.038,0.008-2.63,0.198-4.316-3.205l-0.086-0.171l-0.18,0.062
								c-0.021,0.006-1.969,0.652-3.005-0.322c-0.068-0.063-0.132-0.136-0.192-0.215h-0.286l-0.001-0.003h-0.998v0.003h-0.084h-0.14
								l0.015,0.054c0,0.002,0.012,0.033,0.027,0.074c0.01,0.025,0.02,0.052,0.035,0.086c0.218,0.52,1.146,2.181,4.114,1.806
								c0.372,0.613,2.082,3.117,5.095,3.117h0.002c0.107,0.009,2.666,0.224,5.877-2.396c0.82,0.423,5.186,2.58,9.003,2.58
								c0.352,0,0.7-0.018,1.039-0.057c0.095,0.001,6.107,0.047,8.688-5.786c0.017-0.033,1.588-3.224-0.674-5.692
								C61.613,74.275,63.183,72.58,63.05,70.348z"/>
							<path style="fill:#4C83C3;" d="M59.076,66.822l-0.17-0.094c-2.991-2.371-5.762-3.573-8.237-3.573
								c-0.448,0-0.892,0.04-1.32,0.118c-3.083,0.565-4.564,3.019-4.579,3.045l-0.493,0.832l-0.145-0.956
								c-0.381-2.489-1.632-2.653-1.657-2.657c-0.086-0.018-0.179-0.027-0.274-0.027c-1.361,0-3.165,1.808-3.184,1.828l-0.425,0.43
								l-0.154-0.582c-0.958-3.564-3.37-3.638-3.46-3.64c-3.266,0.265-4.529,1.755-4.545,1.774c-1.63,1.837,0.114,3.791,0.318,4.007
								l0.343,0.357l-0.456,0.198c-4.582,1.988-4.318,3.671-4.313,3.698c0.157,1.208,2.823,2.434,4.467,2.922l0.468,0.14
								l-0.289,0.395c-2.63,3.584-1.843,5.355-1.655,5.671l0.057,0.157h24.171c3.052,0,5.535-2.494,5.535-5.559V74.81L59.076,66.822
								z"/>
							<path style="fill:#4C83C3;" d="M53.541,48.944H24.419c-3.052,0-5.535,2.486-5.535,5.543v20.84
								c0,3.056,2.483,5.543,5.535,5.543h3.247l-0.023-0.053c-0.726-2.08,0.531-4.463,1.058-5.326
								c-2.571-1.065-3.906-2.336-3.969-3.78c-0.095-2.228,2.856-4.043,3.935-4.63c-0.585-1.283-0.667-2.472-0.242-3.538
								c0.781-1.972,2.96-2.76,3.053-2.792c1.091-0.504,2.142-0.761,3.114-0.761c0.668,0,1.308,0.123,1.901,0.365
								c1.623,0.659,2.497,2.031,2.846,2.714c1.058-0.695,2.034-1.047,2.903-1.047c0.319,0,0.627,0.048,0.916,0.142
								c0.975,0.318,1.534,1.083,1.811,1.599c1.56-1.38,3.407-2.079,5.495-2.079c3.895,0,7.557,2.463,8.587,3.218l0.025,0.018
								V54.486C59.077,51.43,56.593,48.944,53.541,48.944z"/>
						</g>
					</g>
				</g>
				<g>
					<g>
						<path style="fill:#B22C1B;" d="M72.249,89.328c-0.138,0-0.267-0.017-0.387-0.05c-0.119-0.033-0.221-0.08-0.305-0.139
							c-0.084-0.059-0.15-0.128-0.198-0.207c-0.048-0.08-0.072-0.168-0.072-0.265c0-0.101,0.025-0.193,0.075-0.279
							s0.119-0.162,0.205-0.227c0.086-0.065,0.188-0.115,0.305-0.151c0.117-0.035,0.243-0.054,0.377-0.054s0.259,0.019,0.375,0.054
							c0.115,0.036,0.216,0.086,0.302,0.151c0.086,0.064,0.154,0.141,0.205,0.227s0.075,0.179,0.075,0.279
							c0,0.097-0.024,0.185-0.072,0.265c-0.048,0.079-0.114,0.148-0.198,0.207s-0.185,0.105-0.302,0.139
							S72.387,89.328,72.249,89.328z M71.683,90.441h1.157v6.371h-1.157V90.441z M71.683,90.441h1.157v6.371h-1.157V90.441z"/>
						<path style="fill:#B22C1B;" d="M79.788,92.567h-1.101c-0.067-0.396-0.22-0.726-0.459-0.988
							c-0.239-0.264-0.623-0.396-1.151-0.396c-0.721,0-1.237,0.336-1.547,1.008c-0.201,0.433-0.302,0.968-0.302,1.605
							c0,0.643,0.143,1.184,0.428,1.622s0.733,0.658,1.346,0.658c0.47,0,0.842-0.137,1.116-0.409
							c0.275-0.272,0.464-0.646,0.569-1.119h1.101c-0.126,0.847-0.44,1.466-0.943,1.858c-0.503,0.392-1.147,0.588-1.931,0.588
							c-0.88,0-1.583-0.306-2.107-0.915c-0.524-0.61-0.786-1.374-0.786-2.293c0-1.123,0.287-1.997,0.861-2.622
							c0.575-0.625,1.306-0.938,2.195-0.938c0.759,0,1.376,0.176,1.852,0.525C79.405,91.104,79.691,91.708,79.788,92.567z"/>
						<path style="fill:#B22C1B;" d="M80.912,90.441h1.101v0.85c0.227-0.29,0.474-0.514,0.742-0.673
							c0.381-0.239,0.83-0.358,1.346-0.358c0.763,0,1.411,0.277,1.943,0.833c0.532,0.556,0.799,1.349,0.799,2.38
							c0,1.393-0.384,2.388-1.151,2.987c-0.487,0.378-1.053,0.566-1.698,0.566c-0.507,0-0.933-0.104-1.277-0.314
							c-0.201-0.122-0.425-0.327-0.673-0.616v3.271h-1.132V90.441z M85.685,93.573c0-0.507-0.078-0.945-0.233-1.314
							c-0.293-0.704-0.83-1.056-1.61-1.056c-0.784,0-1.321,0.373-1.61,1.119C82.077,92.721,82,93.226,82,93.838
							c0,0.495,0.078,0.914,0.233,1.258c0.293,0.662,0.83,0.993,1.61,0.993c0.528,0,0.967-0.209,1.317-0.629
							C85.51,95.041,85.685,94.412,85.685,93.573z"/>
						<path style="fill:#B22C1B;" d="M93.48,92.567H92.38c-0.067-0.396-0.22-0.726-0.459-0.988
							c-0.239-0.264-0.623-0.396-1.151-0.396c-0.721,0-1.237,0.336-1.547,1.008c-0.201,0.433-0.302,0.968-0.302,1.605
							c0,0.643,0.143,1.184,0.428,1.622s0.733,0.658,1.346,0.658c0.47,0,0.842-0.137,1.116-0.409
							c0.275-0.272,0.464-0.646,0.569-1.119h1.101c-0.126,0.847-0.44,1.466-0.943,1.858c-0.503,0.392-1.147,0.588-1.931,0.588
							c-0.88,0-1.583-0.306-2.107-0.915c-0.524-0.61-0.786-1.374-0.786-2.293c0-1.123,0.287-1.997,0.861-2.622
							c0.575-0.625,1.306-0.938,2.195-0.938c0.759,0,1.376,0.176,1.852,0.525C93.097,91.104,93.383,91.708,93.48,92.567z"/>
						<path style="fill:#B22C1B;" d="M95.365,96.844c-0.139,0-0.268-0.016-0.387-0.047c-0.119-0.031-0.221-0.077-0.305-0.139
							c-0.084-0.061-0.15-0.131-0.198-0.211c-0.048-0.079-0.072-0.167-0.072-0.264s0.025-0.188,0.075-0.276
							c0.05-0.089,0.119-0.165,0.205-0.229c0.086-0.065,0.188-0.115,0.305-0.151c0.117-0.035,0.243-0.054,0.377-0.054
							c0.134,0,0.259,0.019,0.374,0.054c0.115,0.036,0.216,0.086,0.302,0.151c0.086,0.064,0.154,0.141,0.205,0.229
							c0.05,0.088,0.075,0.18,0.075,0.276s-0.024,0.185-0.072,0.264c-0.048,0.08-0.114,0.15-0.198,0.211
							c-0.083,0.062-0.185,0.107-0.302,0.139S95.504,96.844,95.365,96.844z"/>
						<path style="fill:#B22C1B;" d="M98.187,88.461c0.264-0.365,0.773-0.548,1.528-0.548c0.071,0,0.145,0.002,0.22,0.004
							c0.075,0.002,0.161,0.007,0.258,0.016v0.98c-0.118-0.008-0.203-0.014-0.255-0.016s-0.102-0.003-0.148-0.003
							c-0.344,0-0.549,0.085-0.616,0.255s-0.101,0.601-0.101,1.292h1.12v0.85h-1.132v5.521h-1.119v-5.521h-0.937v-0.85h0.937v-1
							C97.958,88.993,98.04,88.666,98.187,88.461z"/>
						<path style="fill:#B22C1B;" d="M106.905,93.48c0,1.031-0.264,1.884-0.792,2.557s-1.348,1.009-2.459,1.009
							c-0.927,0-1.663-0.298-2.208-0.893c-0.545-0.596-0.817-1.395-0.817-2.396c0-1.077,0.287-1.935,0.861-2.572
							c0.575-0.637,1.346-0.956,2.314-0.956c0.868,0,1.602,0.275,2.201,0.824S106.905,92.41,106.905,93.48z M105.723,93.511
							c0-0.6-0.101-1.086-0.303-1.459c-0.319-0.591-0.869-0.887-1.65-0.887c-0.693,0-1.197,0.251-1.512,0.755
							c-0.315,0.503-0.472,1.108-0.472,1.817c0,0.679,0.157,1.246,0.472,1.701s0.815,0.683,1.5,0.683
							c0.751,0,1.267-0.271,1.546-0.812S105.723,94.169,105.723,93.511z"/>
						<path style="fill:#B22C1B;" d="M109.307,90.417v4.24c0,0.326,0.054,0.593,0.163,0.798c0.202,0.385,0.577,0.577,1.126,0.577
							c0.788,0,1.325-0.335,1.61-1.005c0.155-0.36,0.233-0.852,0.233-1.477v-3.134h1.132v6.396h-1.069l0.012-0.943
							c-0.146,0.243-0.329,0.448-0.547,0.616c-0.432,0.336-0.956,0.503-1.572,0.503c-0.96,0-1.614-0.306-1.962-0.918
							c-0.188-0.327-0.283-0.763-0.283-1.308v-4.346H109.307z"/>
						<path style="fill:#B22C1B;" d="M115.201,90.417h1.076v0.905c0.319-0.373,0.657-0.642,1.014-0.805
							c0.357-0.164,0.754-0.246,1.19-0.246c0.958,0,1.604,0.317,1.94,0.95c0.185,0.344,0.277,0.839,0.277,1.484v4.106h-1.157v-4.031
							c0-0.39-0.061-0.704-0.182-0.943c-0.201-0.398-0.566-0.598-1.094-0.598c-0.269,0-0.489,0.025-0.661,0.075
							c-0.31,0.089-0.583,0.265-0.817,0.528c-0.188,0.21-0.312,0.427-0.368,0.651c-0.056,0.225-0.084,0.546-0.084,0.965v3.353
							h-1.132V90.417z"/>
						<path style="fill:#B22C1B;" d="M126.07,90.611c0.201,0.117,0.43,0.327,0.686,0.629v-3.232h1.088v8.805h-1.019V95.92
							c-0.264,0.397-0.577,0.684-0.937,0.858c-0.361,0.174-0.774,0.261-1.239,0.261c-0.75,0-1.4-0.3-1.949-0.899
							c-0.549-0.6-0.824-1.396-0.824-2.39c0-0.936,0.25-1.743,0.751-2.425s1.217-1.021,2.148-1.021
							C125.29,90.304,125.722,90.406,126.07,90.611z M125.001,96.102c0.524,0,0.955-0.214,1.292-0.642
							c0.338-0.428,0.506-1.041,0.506-1.843c0-0.809-0.174-1.407-0.522-1.795s-0.778-0.582-1.289-0.582
							c-0.57,0-1.033,0.207-1.387,0.619c-0.354,0.413-0.532,1.022-0.532,1.827c0,0.688,0.153,1.263,0.459,1.724
							C123.835,95.871,124.326,96.102,125.001,96.102z"/>
						<path style="fill:#B22C1B;" d="M133.025,92.933c0.26-0.029,0.434-0.133,0.522-0.309c0.05-0.097,0.076-0.232,0.076-0.409
							c0-0.368-0.137-0.636-0.412-0.802c-0.274-0.165-0.667-0.248-1.179-0.248c-0.591,0-1.01,0.15-1.258,0.453
							c-0.138,0.167-0.229,0.417-0.271,0.748h-1.056c0.021-0.788,0.29-1.337,0.808-1.645c0.518-0.309,1.118-0.462,1.802-0.462
							c0.792,0,1.436,0.143,1.931,0.427c0.491,0.29,0.736,0.736,0.736,1.34v3.686c0,0.113,0.024,0.203,0.072,0.271
							s0.15,0.101,0.305,0.101c0.05,0,0.107-0.003,0.169-0.01c0.063-0.006,0.13-0.016,0.202-0.028v0.799
							c-0.176,0.046-0.311,0.075-0.403,0.088s-0.218,0.02-0.377,0.02c-0.39,0-0.673-0.133-0.849-0.396
							c-0.092-0.139-0.157-0.335-0.195-0.591c-0.23,0.289-0.562,0.538-0.994,0.748c-0.432,0.21-0.908,0.314-1.427,0.314
							c-0.625,0-1.135-0.181-1.532-0.541c-0.396-0.36-0.594-0.812-0.594-1.352c0-0.592,0.195-1.051,0.585-1.378
							s0.901-0.528,1.535-0.604L133.025,92.933z M131.49,96.114c0.398,0,0.784-0.088,1.157-0.264
							c0.629-0.29,0.943-0.766,0.943-1.428v-0.868c-0.138,0.084-0.316,0.154-0.534,0.211c-0.218,0.057-0.432,0.098-0.642,0.122
							l-0.686,0.082c-0.411,0.051-0.719,0.132-0.924,0.245c-0.348,0.185-0.522,0.482-0.522,0.894c0,0.311,0.119,0.556,0.358,0.735
							C130.88,96.024,131.163,96.114,131.49,96.114z"/>
						<path style="fill:#B22C1B;" d="M136.62,88.631h1.145v1.786h1.075v0.88h-1.075v4.171c0,0.223,0.08,0.373,0.239,0.453
							c0.088,0.042,0.235,0.062,0.44,0.062c0.055,0,0.113-0.001,0.176-0.003c0.062-0.002,0.136-0.008,0.22-0.016v0.848
							c-0.13,0.038-0.265,0.064-0.405,0.079c-0.141,0.014-0.292,0.021-0.456,0.021c-0.528,0-0.887-0.128-1.076-0.383
							c-0.188-0.256-0.283-0.589-0.283-0.999v-4.234h-0.912v-0.88h0.912V88.631z"/>
						<path style="fill:#B22C1B;" d="M140.413,89.328c-0.138,0-0.267-0.017-0.387-0.05c-0.119-0.033-0.221-0.08-0.305-0.139
							c-0.084-0.059-0.15-0.128-0.198-0.207c-0.048-0.08-0.072-0.168-0.072-0.265c0-0.101,0.025-0.193,0.075-0.279
							s0.119-0.162,0.205-0.227c0.086-0.065,0.188-0.115,0.305-0.151c0.117-0.035,0.243-0.054,0.377-0.054s0.259,0.019,0.375,0.054
							c0.115,0.036,0.216,0.086,0.302,0.151c0.086,0.064,0.154,0.141,0.205,0.227s0.075,0.179,0.075,0.279
							c0,0.097-0.024,0.185-0.072,0.265c-0.048,0.079-0.114,0.148-0.198,0.207s-0.185,0.105-0.302,0.139
							S140.552,89.328,140.413,89.328z M139.847,90.441h1.157v6.371h-1.157V90.441z M139.847,90.441h1.157v6.371h-1.157V90.441z"/>
						<path style="fill:#B22C1B;" d="M148.462,93.48c0,1.031-0.264,1.884-0.792,2.557s-1.348,1.009-2.459,1.009
							c-0.927,0-1.663-0.298-2.208-0.893c-0.545-0.596-0.817-1.395-0.817-2.396c0-1.077,0.287-1.935,0.861-2.572
							c0.575-0.637,1.346-0.956,2.314-0.956c0.868,0,1.602,0.275,2.201,0.824S148.462,92.41,148.462,93.48z M147.279,93.511
							c0-0.6-0.101-1.086-0.303-1.459c-0.319-0.591-0.869-0.887-1.65-0.887c-0.693,0-1.197,0.251-1.512,0.755
							c-0.315,0.503-0.472,1.108-0.472,1.817c0,0.679,0.157,1.246,0.472,1.701s0.815,0.683,1.5,0.683
							c0.751,0,1.267-0.271,1.546-0.812S147.279,94.169,147.279,93.511z"/>
						<path style="fill:#B22C1B;" d="M149.743,90.417h1.076v0.905c0.319-0.373,0.657-0.642,1.014-0.805
							c0.357-0.164,0.754-0.246,1.19-0.246c0.958,0,1.604,0.317,1.94,0.95c0.185,0.344,0.277,0.839,0.277,1.484v4.106h-1.157v-4.031
							c0-0.39-0.061-0.704-0.182-0.943c-0.201-0.398-0.566-0.598-1.094-0.598c-0.269,0-0.489,0.025-0.661,0.075
							c-0.31,0.089-0.583,0.265-0.817,0.528c-0.188,0.21-0.312,0.427-0.368,0.651c-0.056,0.225-0.084,0.546-0.084,0.965v3.353
							h-1.132V90.417z"/>
					</g>
				</g>
			</g>
		</g>
	</g>
</g>
<g>
</g>
</svg>
