<?xml version="1.0" encoding="utf-8"?>
<!-- Generator: Adobe Illustrator 16.0.0, SVG Export Plug-In . SVG Version: 6.00 Build 0)  -->
<!DOCTYPE svg PUBLIC "-//W3C//DTD SVG 1.1//EN" "http://www.w3.org/Graphics/SVG/1.1/DTD/svg11.dtd">
<svg version="1.1" id="Layer_1" xmlns="http://www.w3.org/2000/svg" xmlns:xlink="http://www.w3.org/1999/xlink" x="0px" y="0px"
	 width="729.39px" height="568.067px" viewBox="0 0 729.39 568.067" enable-background="new 0 0 729.39 568.067"
	 xml:space="preserve">
<g opacity="0.6">
	<g>
		<defs>
			<rect id="SVGID_1_" x="131.093" y="43.698" width="43.697" height="43.698"/>
		</defs>
		<clipPath id="SVGID_2_">
			<use xlink:href="#SVGID_1_"  overflow="visible"/>
		</clipPath>
		<polygon clip-path="url(#SVGID_2_)" fill="#E3A840" points="131.093,43.698 131.093,87.396 174.79,43.698 		"/>
	</g>
</g>
<g opacity="0.6">
	<g>
		<defs>
			<rect id="SVGID_3_" x="87.395" width="43.698" height="43.698"/>
		</defs>
		<clipPath id="SVGID_4_">
			<use xlink:href="#SVGID_3_"  overflow="visible"/>
		</clipPath>
		<polygon clip-path="url(#SVGID_4_)" fill="#E3A840" points="87.395,43.698 131.093,0 87.395,0 		"/>
	</g>
</g>
<g opacity="0.6">
	<g>
		<defs>
			<rect id="SVGID_5_" x="65.546" y="87.396" width="43.697" height="43.697"/>
		</defs>
		<clipPath id="SVGID_6_">
			<use xlink:href="#SVGID_5_"  overflow="visible"/>
		</clipPath>
		<polygon clip-path="url(#SVGID_6_)" fill="#E3A840" points="65.546,87.396 65.546,131.093 109.244,131.093 		"/>
	</g>
</g>
<g opacity="0.6">
	<g>
		<defs>
			<rect id="SVGID_7_" x="196.638" y="436.975" width="43.697" height="43.697"/>
		</defs>
		<clipPath id="SVGID_8_">
			<use xlink:href="#SVGID_7_"  overflow="visible"/>
		</clipPath>
		<polygon clip-path="url(#SVGID_8_)" fill="#E3A840" points="196.639,480.672 240.336,480.672 240.336,436.975 		"/>
	</g>
</g>
<g opacity="0.6">
	<g>
		<defs>
			<rect id="SVGID_9_" x="196.638" y="436.975" width="43.697" height="43.697"/>
		</defs>
		<clipPath id="SVGID_10_">
			<use xlink:href="#SVGID_9_"  overflow="visible"/>
		</clipPath>
		<polygon clip-path="url(#SVGID_10_)" fill="#E3A840" points="240.336,480.672 196.639,436.975 240.336,436.975 		"/>
	</g>
</g>
<g opacity="0.6">
	<g>
		<defs>
			<rect id="SVGID_11_" x="43.698" y="262.185" width="43.697" height="43.697"/>
		</defs>
		<clipPath id="SVGID_12_">
			<use xlink:href="#SVGID_11_"  overflow="visible"/>
		</clipPath>
		<polygon clip-path="url(#SVGID_12_)" fill="#E3A840" points="87.395,305.882 87.395,262.185 43.697,262.185 		"/>
	</g>
</g>
<g opacity="0.6">
	<g>
		<defs>
			<rect id="SVGID_13_" x="43.698" y="262.185" width="43.697" height="43.697"/>
		</defs>
		<clipPath id="SVGID_14_">
			<use xlink:href="#SVGID_13_"  overflow="visible"/>
		</clipPath>
		<polygon clip-path="url(#SVGID_14_)" fill="#E3A840" points="87.395,262.185 43.697,305.883 43.697,262.185 		"/>
	</g>
</g>
<g opacity="0.6">
	<g>
		<defs>
			<rect id="SVGID_15_" x="65.546" y="87.396" width="87.395" height="43.697"/>
		</defs>
		<clipPath id="SVGID_16_">
			<use xlink:href="#SVGID_15_"  overflow="visible"/>
		</clipPath>
		<polygon clip-path="url(#SVGID_16_)" fill="#E3A840" points="109.244,87.396 65.546,131.093 109.244,131.093 152.941,131.093 
			152.941,87.396 		"/>
	</g>
</g>
<g opacity="0.6">
	<g>
		<defs>
			<rect id="SVGID_17_" x="109.243" y="109.244" width="43.698" height="21.848"/>
		</defs>
		<clipPath id="SVGID_18_">
			<use xlink:href="#SVGID_17_"  overflow="visible"/>
		</clipPath>
		<path clip-path="url(#SVGID_18_)" fill="#E3A840" d="M152.941,109.244c0,12.066-9.782,21.848-21.848,21.848
			c-12.068,0-21.85-9.782-21.85-21.848H152.941z"/>
	</g>
</g>
<g opacity="0.6">
	<g>
		<defs>
			<rect id="SVGID_19_" x="87.395" y="174.79" width="21.848" height="43.698"/>
		</defs>
		<clipPath id="SVGID_20_">
			<use xlink:href="#SVGID_19_"  overflow="visible"/>
		</clipPath>
		<path clip-path="url(#SVGID_20_)" fill="#E3A840" d="M109.244,218.488c-12.066,0-21.848-9.782-21.848-21.848
			c0-12.068,9.782-21.85,21.848-21.85V218.488z"/>
	</g>
</g>
<g opacity="0.6">
	<g>
		<defs>
			<rect id="SVGID_21_" x="87.395" y="174.79" width="21.848" height="43.698"/>
		</defs>
		<clipPath id="SVGID_22_">
			<use xlink:href="#SVGID_21_"  overflow="visible"/>
		</clipPath>
		<path clip-path="url(#SVGID_22_)" fill="#E3A840" d="M109.244,218.488c-12.066,0-21.848-9.782-21.848-21.848
			c0-12.068,9.782-21.85,21.848-21.85V218.488z"/>
	</g>
</g>
<g opacity="0.6">
	<g>
		<defs>
			<rect id="SVGID_23_" y="371.429" width="43.698" height="21.849"/>
		</defs>
		<clipPath id="SVGID_24_">
			<use xlink:href="#SVGID_23_"  overflow="visible"/>
		</clipPath>
		<path clip-path="url(#SVGID_24_)" fill="#E3A840" d="M43.698,371.429c0,12.066-9.782,21.849-21.848,21.849
			C9.782,393.278,0,383.496,0,371.429H43.698z"/>
	</g>
</g>
<g opacity="0.6">
	<g>
		<defs>
			<rect id="SVGID_25_" x="152.941" y="327.731" width="87.395" height="43.698"/>
		</defs>
		<clipPath id="SVGID_26_">
			<use xlink:href="#SVGID_25_"  overflow="visible"/>
		</clipPath>
		<path clip-path="url(#SVGID_26_)" fill="#E3A840" d="M240.336,327.731c0,24.135-19.564,43.698-43.698,43.698
			c-24.134,0-43.698-19.563-43.698-43.698H240.336z"/>
	</g>
</g>
<g opacity="0.6">
	<g>
		<defs>
			<rect id="SVGID_27_" x="196.638" y="174.79" width="21.849" height="43.698"/>
		</defs>
		<clipPath id="SVGID_28_">
			<use xlink:href="#SVGID_27_"  overflow="visible"/>
		</clipPath>
		<path clip-path="url(#SVGID_28_)" fill="#E3A840" d="M196.639,174.79c12.066,0,21.848,9.782,21.848,21.848
			c0,12.068-9.782,21.85-21.848,21.85V174.79z"/>
	</g>
</g>
<g opacity="0.6">
	<g>
		<defs>
			<rect id="SVGID_29_" x="240.34" y="436.975" width="43.694" height="87.389"/>
		</defs>
		<clipPath id="SVGID_30_">
			<use xlink:href="#SVGID_29_"  overflow="visible"/>
		</clipPath>
		<path clip-path="url(#SVGID_30_)" fill="#E3A840" d="M240.34,436.975c24.131,0,43.693,19.563,43.693,43.694
			c0,24.131-19.563,43.693-43.693,43.693V436.975z"/>
	</g>
</g>
<g opacity="0.6">
	<g>
		<defs>
			<rect id="SVGID_31_" x="87.395" y="131.092" width="43.698" height="43.698"/>
		</defs>
		<clipPath id="SVGID_32_">
			<use xlink:href="#SVGID_31_"  overflow="visible"/>
		</clipPath>
		<polygon clip-path="url(#SVGID_32_)" fill="#E3A840" points="109.244,131.092 87.396,131.092 87.396,152.941 109.244,152.941 
			109.244,174.79 131.092,174.79 131.092,152.941 131.092,131.092 		"/>
	</g>
</g>
<g opacity="0.6">
	<g>
		<defs>
			<rect id="SVGID_33_" x="87.395" y="131.092" width="43.698" height="43.698"/>
		</defs>
		<clipPath id="SVGID_34_">
			<use xlink:href="#SVGID_33_"  overflow="visible"/>
		</clipPath>
		<polygon clip-path="url(#SVGID_34_)" fill="#E3A840" points="87.395,131.092 87.395,152.941 109.243,152.941 109.243,174.79 
			131.093,174.79 		"/>
	</g>
</g>
<g opacity="0.6">
	<g>
		<defs>
			<rect id="SVGID_35_" x="109.243" y="174.79" width="65.547" height="43.698"/>
		</defs>
		<clipPath id="SVGID_36_">
			<use xlink:href="#SVGID_35_"  overflow="visible"/>
		</clipPath>
		<polygon clip-path="url(#SVGID_36_)" fill="#E3A840" points="174.79,218.488 131.092,174.79 109.244,174.79 109.244,218.488 
			109.244,196.64 131.092,196.64 131.092,218.488 		"/>
	</g>
</g>
<g opacity="0.6">
	<g>
		<defs>
			<rect id="SVGID_37_" x="131.093" y="174.79" width="87.395" height="43.698"/>
		</defs>
		<clipPath id="SVGID_38_">
			<use xlink:href="#SVGID_37_"  overflow="visible"/>
		</clipPath>
		<polygon clip-path="url(#SVGID_38_)" fill="#E3A840" points="174.79,174.79 131.092,218.488 174.79,218.488 218.487,174.79 		"/>
	</g>
</g>
<g opacity="0.6">
	<g>
		<defs>
			<rect id="SVGID_39_" x="152.941" y="284.035" width="43.697" height="43.696"/>
		</defs>
		<clipPath id="SVGID_40_">
			<use xlink:href="#SVGID_39_"  overflow="visible"/>
		</clipPath>
		<polygon clip-path="url(#SVGID_40_)" fill="#E3A840" points="196.639,284.034 152.941,327.731 152.941,284.034 		"/>
	</g>
</g>
<g opacity="0.6">
	<g>
		<defs>
			<rect id="SVGID_41_" x="101.961" y="218.488" width="29.131" height="43.697"/>
		</defs>
		<clipPath id="SVGID_42_">
			<use xlink:href="#SVGID_41_"  overflow="visible"/>
		</clipPath>
		<path clip-path="url(#SVGID_42_)" fill="#E3A840" d="M116.527,218.488c-8.044,0-14.566,6.521-14.566,14.566
			c0,3.864,1.508,7.375,3.965,9.982h-0.005l11.758,15.788c0.187,0.29,0.392,0.566,0.616,0.827l0.031,0.04l0.005-0.001
			c1.334,1.526,3.292,2.495,5.479,2.495c4.022,0,7.283-3.26,7.283-7.283v-17.156v-4.692
			C131.093,225.009,124.571,218.488,116.527,218.488"/>
	</g>
</g>
<g opacity="0.6">
	<g>
		<defs>
			<rect id="SVGID_43_" x="152.941" y="284.032" width="43.697" height="65.547"/>
		</defs>
		<clipPath id="SVGID_44_">
			<use xlink:href="#SVGID_43_"  overflow="visible"/>
		</clipPath>
		<path clip-path="url(#SVGID_44_)" fill="#E3A840" d="M174.79,284.033c-12.066,0-21.848,9.781-21.848,21.847
			c0,5.799,2.262,11.063,5.946,14.975l-0.007,0.001l17.639,23.683c0.278,0.435,0.586,0.849,0.923,1.24l0.046,0.06l0.008-0.002
			c2.001,2.289,4.938,3.743,8.218,3.743c6.033,0,10.924-4.892,10.924-10.925v-25.734v-7.04
			C196.638,293.814,186.856,284.033,174.79,284.033"/>
	</g>
</g>
<g opacity="0.6">
	<g>
		<defs>
			<rect id="SVGID_45_" x="152.941" y="458.824" width="43.697" height="65.546"/>
		</defs>
		<clipPath id="SVGID_46_">
			<use xlink:href="#SVGID_45_"  overflow="visible"/>
		</clipPath>
		<path clip-path="url(#SVGID_46_)" fill="#E3A840" d="M174.79,458.824c-12.066,0-21.848,9.781-21.848,21.848
			c0,5.799,2.262,11.063,5.946,14.975l-0.007,0.001l17.639,23.681c0.278,0.436,0.586,0.851,0.923,1.24l0.046,0.061l0.008-0.002
			c2.001,2.289,4.938,3.744,8.218,3.744c6.033,0,10.924-4.893,10.924-10.925v-25.734v-7.04
			C196.638,468.605,186.856,458.824,174.79,458.824"/>
	</g>
</g>
<g opacity="0.6">
	<g>
		<defs>
			<rect id="SVGID_47_" x="14.566" y="349.58" width="29.132" height="43.698"/>
		</defs>
		<clipPath id="SVGID_48_">
			<use xlink:href="#SVGID_47_"  overflow="visible"/>
		</clipPath>
		<path clip-path="url(#SVGID_48_)" fill="#E3A840" d="M29.132,349.58c-8.045,0-14.566,6.522-14.566,14.566
			c0,3.863,1.508,7.375,3.964,9.982h-0.004l11.758,15.788c0.187,0.29,0.392,0.565,0.616,0.827l0.031,0.04l0.004-0.001
			c1.335,1.526,3.292,2.495,5.48,2.495c4.022,0,7.283-3.261,7.283-7.284v-17.155v-4.692C43.698,356.102,37.176,349.58,29.132,349.58
			"/>
	</g>
</g>
<g opacity="0.6">
	<g>
		<defs>
			<rect id="SVGID_49_" x="87.395" y="218.488" width="43.698" height="43.697"/>
		</defs>
		<clipPath id="SVGID_50_">
			<use xlink:href="#SVGID_49_"  overflow="visible"/>
		</clipPath>
		<polygon clip-path="url(#SVGID_50_)" fill="#E3A840" points="131.093,218.488 87.395,262.185 131.093,262.185 		"/>
	</g>
</g>
<g opacity="0.6">
	<g>
		<defs>
			<rect id="SVGID_51_" x="87.395" width="87.395" height="87.396"/>
		</defs>
		<clipPath id="SVGID_52_">
			<use xlink:href="#SVGID_51_"  overflow="visible"/>
		</clipPath>
		<path clip-path="url(#SVGID_52_)" fill="#E3A840" d="M131.093,0c-24.134,0-43.698,19.563-43.698,43.697l43.698,43.698
			c24.133,0,43.697-19.564,43.697-43.698S155.226,0,131.093,0"/>
	</g>
</g>
<g opacity="0.6">
	<g>
		<defs>
			<rect id="SVGID_53_" x="262.185" y="284.032" width="43.698" height="21.85"/>
		</defs>
		<clipPath id="SVGID_54_">
			<use xlink:href="#SVGID_53_"  overflow="visible"/>
		</clipPath>
		<polygon clip-path="url(#SVGID_54_)" fill="#E3A840" points="262.185,284.033 305.882,284.033 284.033,305.882 		"/>
	</g>
</g>
<g opacity="0.6">
	<g>
		<defs>
			<rect id="SVGID_55_" x="240.335" y="436.975" width="43.698" height="43.697"/>
		</defs>
		<clipPath id="SVGID_56_">
			<use xlink:href="#SVGID_55_"  overflow="visible"/>
		</clipPath>
		<g opacity="0.25" clip-path="url(#SVGID_56_)">
			<g>
				<defs>
					<rect id="SVGID_57_" x="262.185" y="436.975" width="21.848" height="21.849"/>
				</defs>
				<clipPath id="SVGID_58_">
					<use xlink:href="#SVGID_57_"  overflow="visible"/>
				</clipPath>
				<path clip-path="url(#SVGID_58_)" fill="#E3A840" d="M284.033,458.824v-21.849h-21.848
					C274.251,436.975,284.033,446.756,284.033,458.824"/>
			</g>
		</g>
		<g opacity="0.25" clip-path="url(#SVGID_56_)">
			<g>
				<defs>
					<rect id="SVGID_59_" x="262.186" y="458.824" width="21.847" height="21.849"/>
				</defs>
				<clipPath id="SVGID_60_">
					<use xlink:href="#SVGID_59_"  overflow="visible"/>
				</clipPath>
				<path clip-path="url(#SVGID_60_)" fill="#E3A840" d="M262.186,480.672h21.847v-21.848
					C284.033,470.89,274.252,480.671,262.186,480.672"/>
			</g>
		</g>
		<g opacity="0.25" clip-path="url(#SVGID_56_)">
			<g>
				<defs>
					<rect id="SVGID_61_" x="240.335" y="458.824" width="21.847" height="21.849"/>
				</defs>
				<clipPath id="SVGID_62_">
					<use xlink:href="#SVGID_61_"  overflow="visible"/>
				</clipPath>
				<path clip-path="url(#SVGID_62_)" fill="#E3A840" d="M262.183,480.672c-12.066-0.001-21.846-9.782-21.846-21.848v21.848H262.183
					z"/>
			</g>
		</g>
		<g opacity="0.25" clip-path="url(#SVGID_56_)">
			<g>
				<defs>
					<rect id="SVGID_63_" x="240.335" y="436.975" width="21.85" height="21.849"/>
				</defs>
				<clipPath id="SVGID_64_">
					<use xlink:href="#SVGID_63_"  overflow="visible"/>
				</clipPath>
				<path clip-path="url(#SVGID_64_)" fill="#E3A840" d="M240.336,458.824c0-12.067,9.782-21.849,21.848-21.849h-21.848V458.824z"/>
			</g>
		</g>
	</g>
</g>
<g opacity="0.6">
	<g>
		<defs>
			<rect id="SVGID_65_" x="43.698" y="327.731" width="43.697" height="21.849"/>
		</defs>
		<clipPath id="SVGID_66_">
			<use xlink:href="#SVGID_65_"  overflow="visible"/>
		</clipPath>
		<polygon clip-path="url(#SVGID_66_)" fill="#E3A840" points="65.546,327.731 43.698,349.58 65.546,349.58 87.395,349.58 		"/>
	</g>
</g>
<g opacity="0.6">
	<g>
		<defs>
			<rect id="SVGID_67_" x="262.185" y="327.731" width="21.848" height="21.849"/>
		</defs>
		<clipPath id="SVGID_68_">
			<use xlink:href="#SVGID_67_"  overflow="visible"/>
		</clipPath>
		<polygon clip-path="url(#SVGID_68_)" fill="#E3A840" points="284.033,327.731 284.033,349.58 262.185,349.58 		"/>
	</g>
</g>
<g opacity="0.6">
	<g>
		<defs>
			<rect id="SVGID_69_" x="284.033" y="327.731" width="21.85" height="21.849"/>
		</defs>
		<clipPath id="SVGID_70_">
			<use xlink:href="#SVGID_69_"  overflow="visible"/>
		</clipPath>
		<polygon clip-path="url(#SVGID_70_)" fill="#E3A840" points="305.882,327.731 305.882,349.58 284.034,349.58 		"/>
	</g>
</g>
<g opacity="0.6">
	<g>
		<defs>
			<rect id="SVGID_71_" x="218.487" y="262.185" width="43.698" height="43.697"/>
		</defs>
		<clipPath id="SVGID_72_">
			<use xlink:href="#SVGID_71_"  overflow="visible"/>
		</clipPath>
		<polygon clip-path="url(#SVGID_72_)" fill="#E3A840" points="218.487,305.882 218.487,262.185 262.185,284.032 		"/>
	</g>
</g>
<g opacity="0.6">
	<g>
		<defs>
			<rect id="SVGID_73_" x="305.883" y="349.58" width="43.697" height="43.698"/>
		</defs>
		<clipPath id="SVGID_74_">
			<use xlink:href="#SVGID_73_"  overflow="visible"/>
		</clipPath>
		<polygon clip-path="url(#SVGID_74_)" fill="#E3A840" points="305.882,349.58 349.58,349.58 327.733,393.278 		"/>
	</g>
</g>
<g opacity="0.6">
	<g>
		<defs>
			<rect id="SVGID_75_" x="305.883" y="349.58" width="43.697" height="43.698"/>
		</defs>
		<clipPath id="SVGID_76_">
			<use xlink:href="#SVGID_75_"  overflow="visible"/>
		</clipPath>
		<polygon clip-path="url(#SVGID_76_)" fill="#E3A840" points="349.58,393.278 305.882,393.278 327.729,349.58 		"/>
	</g>
</g>
<g opacity="0.6">
	<g>
		<defs>
			<rect id="SVGID_77_" x="43.698" y="305.882" width="43.697" height="43.697"/>
		</defs>
		<clipPath id="SVGID_78_">
			<use xlink:href="#SVGID_77_"  overflow="visible"/>
		</clipPath>
		<polygon clip-path="url(#SVGID_78_)" fill="#E3A840" points="43.698,305.882 87.395,305.882 65.548,349.58 		"/>
	</g>
</g>
<g opacity="0.6">
	<g>
		<defs>
			<rect id="SVGID_79_" x="284.033" y="436.975" width="87.396" height="87.395"/>
		</defs>
		<clipPath id="SVGID_80_">
			<use xlink:href="#SVGID_79_"  overflow="visible"/>
		</clipPath>
		<polygon clip-path="url(#SVGID_80_)" fill="#E3A840" points="371.429,458.824 371.429,436.975 305.883,436.975 305.883,436.974 
			284.033,436.974 284.033,436.975 284.033,458.824 284.033,502.521 284.033,524.37 305.883,524.37 371.429,524.37 371.429,502.521 
			305.883,502.521 305.883,458.824 		"/>
	</g>
</g>
<g opacity="0.6">
	<g>
		<defs>
			<rect id="SVGID_81_" x="327.73" y="436.975" width="43.698" height="43.697"/>
		</defs>
		<clipPath id="SVGID_82_">
			<use xlink:href="#SVGID_81_"  overflow="visible"/>
		</clipPath>
		<path clip-path="url(#SVGID_82_)" fill="#E3A840" d="M371.429,458.824c0,12.066-9.782,21.848-21.848,21.848
			c-12.068,0-21.85-9.781-21.85-21.848c0-12.067,9.782-21.849,21.85-21.849C361.646,436.975,371.429,446.756,371.429,458.824"/>
	</g>
</g>
<g opacity="0.6">
	<g>
		<defs>
			<rect id="SVGID_83_" x="152.941" y="480.672" width="21.849" height="21.849"/>
		</defs>
		<clipPath id="SVGID_84_">
			<use xlink:href="#SVGID_83_"  overflow="visible"/>
		</clipPath>
		<polygon clip-path="url(#SVGID_84_)" fill="#E3A840" points="152.941,480.672 152.941,502.52 174.789,480.672 		"/>
	</g>
</g>
<g opacity="0.6">
	<g>
		<defs>
			<rect id="SVGID_85_" x="174.79" y="502.521" width="21.848" height="21.849"/>
		</defs>
		<clipPath id="SVGID_86_">
			<use xlink:href="#SVGID_85_"  overflow="visible"/>
		</clipPath>
		<polygon clip-path="url(#SVGID_86_)" fill="#E3A840" points="196.639,524.37 196.639,502.521 174.79,524.37 		"/>
	</g>
</g>
<g opacity="0.6">
	<g>
		<defs>
			<rect id="SVGID_87_" x="284.033" y="524.37" width="21.85" height="43.697"/>
		</defs>
		<clipPath id="SVGID_88_">
			<use xlink:href="#SVGID_87_"  overflow="visible"/>
		</clipPath>
		<path clip-path="url(#SVGID_88_)" fill="#E3A840" d="M305.882,568.067c-12.066,0-21.849-9.782-21.849-21.849
			c0-12.067,9.782-21.849,21.849-21.849V568.067z"/>
	</g>
</g>
<g opacity="0.6">
	<g>
		<defs>
			<rect id="SVGID_89_" x="284.033" y="546.218" width="43.697" height="21.849"/>
		</defs>
		<clipPath id="SVGID_90_">
			<use xlink:href="#SVGID_89_"  overflow="visible"/>
		</clipPath>
		<path clip-path="url(#SVGID_90_)" fill="#E3A840" d="M327.731,546.218c0,12.066-9.782,21.849-21.848,21.849
			c-12.068,0-21.85-9.782-21.85-21.849H327.731z"/>
	</g>
</g>
<g opacity="0.6">
	<g>
		<defs>
			<rect id="SVGID_91_" x="284.033" y="524.37" width="43.697" height="21.849"/>
		</defs>
		<clipPath id="SVGID_92_">
			<use xlink:href="#SVGID_91_"  overflow="visible"/>
		</clipPath>
		<polygon clip-path="url(#SVGID_92_)" fill="#E3A840" points="305.882,546.218 327.73,546.218 284.034,546.218 284.034,524.371 
			305.882,524.371 		"/>
	</g>
</g>
<g opacity="0.6">
	<g>
		<defs>
			<rect id="SVGID_93_" x="196.643" y="371.429" width="43.697" height="43.697"/>
		</defs>
		<clipPath id="SVGID_94_">
			<use xlink:href="#SVGID_93_"  overflow="visible"/>
		</clipPath>
		
			<rect x="203.042" y="377.829" transform="matrix(0.7071 -0.7071 0.7071 0.7071 -214.0959 269.6897)" clip-path="url(#SVGID_94_)" fill="#E3A840" width="30.898" height="30.898"/>
	</g>
</g>
<g opacity="0.6">
	<g>
		<defs>
			<rect id="SVGID_95_" x="284.038" y="480.672" width="43.698" height="43.697"/>
		</defs>
		<clipPath id="SVGID_96_">
			<use xlink:href="#SVGID_95_"  overflow="visible"/>
		</clipPath>
		<polyline clip-path="url(#SVGID_96_)" fill="#E3A840" points="305.886,480.672 284.039,502.52 305.886,524.37 327.734,502.52 
			305.886,480.672 		"/>
	</g>
</g>
<g opacity="0.6">
	<g>
		<defs>
			<rect id="SVGID_97_" x="152.945" y="436.975" width="43.698" height="43.697"/>
		</defs>
		<clipPath id="SVGID_98_">
			<use xlink:href="#SVGID_97_"  overflow="visible"/>
		</clipPath>
		
			<rect x="159.344" y="443.375" transform="matrix(0.7071 -0.7071 0.7071 0.7071 -273.2461 257.994)" clip-path="url(#SVGID_98_)" fill="#E3A840" width="30.898" height="30.898"/>
	</g>
</g>
<g opacity="0.6">
	<g>
		<defs>
			<rect id="SVGID_99_" x="196.643" y="371.429" width="43.697" height="43.697"/>
		</defs>
		<clipPath id="SVGID_100_">
			<use xlink:href="#SVGID_99_"  overflow="visible"/>
		</clipPath>
		<polyline clip-path="url(#SVGID_100_)" fill="#E3A840" points="196.643,371.429 240.34,371.429 196.643,415.125 196.643,371.429 
					"/>
	</g>
</g>
<g opacity="0.6">
	<g>
		<defs>
			<rect id="SVGID_101_" x="218.487" y="262.185" width="87.396" height="65.546"/>
		</defs>
		<clipPath id="SVGID_102_">
			<use xlink:href="#SVGID_101_"  overflow="visible"/>
		</clipPath>
		<polygon clip-path="url(#SVGID_102_)" fill="#E3A840" points="262.185,305.882 284.033,327.73 305.882,305.882 		"/>
		<path clip-path="url(#SVGID_102_)" fill="#E3A840" d="M284.033,305.882h21.848v-21.849
			C305.881,296.1,296.099,305.882,284.033,305.882"/>
		<path clip-path="url(#SVGID_102_)" fill="#E3A840" d="M262.185,284.034c0-12.066,9.782-21.848,21.848-21.848h-21.848
			l-43.697,21.851l43.697,21.847v-0.001h21.848C271.966,305.882,262.185,296.1,262.185,284.034"/>
		<path clip-path="url(#SVGID_102_)" fill="#E3A840" d="M305.882,284.034v-21.848h-21.849
			C296.1,262.186,305.882,271.967,305.882,284.034"/>
	</g>
</g>
<polygon fill="#1E84C5" points="279.523,42.327 279.523,58.947 269.928,58.947 269.414,51.965 257.932,51.965 257.932,95.917 
	264.616,97.202 264.616,104.698 238.741,104.698 238.741,97.202 245.424,95.917 245.424,51.965 233.986,51.965 233.472,58.947 
	223.919,58.947 223.919,42.327 "/>
<path fill="#1E84C5" d="M284.085,97.202l6.041-1.285V46.696l-6.683-1.286v-7.538h19.147v26.387c1.457-2.141,3.242-3.805,5.355-4.99
	c2.114-1.185,4.456-1.777,7.025-1.777c4.855,0,8.661,1.605,11.417,4.819c2.755,3.213,4.134,8.175,4.134,14.886v18.721l5.997,1.285
	v7.496h-23.904v-7.496l5.397-1.285V77.111c0-3.599-0.636-6.148-1.905-7.647c-1.271-1.499-3.163-2.249-5.677-2.249
	c-1.742,0-3.263,0.315-4.562,0.943c-1.3,0.628-2.393,1.514-3.278,2.657v25.103l5.398,1.285v7.496h-23.903V97.202z"/>
<path fill="#1E84C5" d="M341.038,97.202l6.04-1.286V67.173l-6.683-1.286v-7.54h19.192v37.568l5.997,1.286v7.496h-24.545V97.202z
	 M359.586,47.253h-12.509v-9.381h12.509V47.253z"/>
<path fill="#1E84C5" d="M369.889,97.202l5.997-1.285V67.172l-6.639-1.284v-7.54h18.291l0.557,6.639
	c1.542-2.37,3.442-4.212,5.697-5.526c2.257-1.313,4.784-1.97,7.583-1.97c4.683,0,8.339,1.47,10.967,4.413
	c2.627,2.94,3.939,7.553,3.939,13.835v20.177l5.998,1.285v7.496h-23.904v-7.496l5.354-1.285V75.783c0-3.112-0.626-5.319-1.883-6.619
	c-1.257-1.298-3.156-1.949-5.699-1.949c-1.655,0-3.14,0.335-4.454,1.007c-1.313,0.671-2.414,1.622-3.299,2.849v24.846l5.056,1.285
	v7.496h-23.562V97.202z"/>
<polygon fill="#1E84C5" points="425.813,45.411 425.813,37.871 444.962,37.871 444.962,76.597 447.746,76.597 454.943,66.444 
	450.874,65.888 450.874,58.348 473.664,58.348 473.664,65.888 468.181,67.13 459.827,78.61 471.522,96.216 476.276,97.202 
	476.276,104.698 454.857,104.698 454.857,97.202 457.427,96.773 450.316,85.293 444.962,85.293 444.962,95.916 450.359,97.202 
	450.359,104.698 426.456,104.698 426.456,97.202 432.497,95.916 432.497,46.696 "/>
<rect x="484.344" y="93.731" fill="#1E84C5" width="12.466" height="10.967"/>
<path fill="#FDD41D" d="M388.558,174.326h-9.681l-1.338-8.655c-1.279-1.278-2.892-2.289-4.84-3.033
	c-1.948-0.743-4.245-1.115-6.894-1.115c-5.65,0-10,2.053-13.049,6.156c-3.048,4.104-4.572,9.458-4.572,16.061v2.275
	c0,6.602,1.517,11.97,4.551,16.104c3.033,4.134,7.316,6.201,12.847,6.201c2.558,0,4.9-0.372,7.027-1.115
	c2.126-0.743,3.769-1.754,4.93-3.034l1.338-8.654h9.681v12.848c-2.617,3.033-5.956,5.45-10.016,7.249
	c-4.06,1.799-8.603,2.699-13.628,2.699c-8.713,0-15.852-3.019-21.413-9.056c-5.562-6.038-8.342-13.785-8.342-23.242v-2.186
	c0-9.428,2.765-17.176,8.297-23.243c5.532-6.067,12.685-9.1,21.458-9.1c5.025,0,9.562,0.915,13.606,2.744
	c4.044,1.829,7.391,4.245,10.037,7.25V174.326z"/>
<path fill="#FDD41D" d="M396.744,209.568l6.245-1.339v-29.934l-6.914-1.337v-7.852h19.048l0.581,7.049
	c1.129-2.499,2.586-4.446,4.371-5.845c1.784-1.396,3.852-2.097,6.2-2.097c0.686,0,1.406,0.053,2.164,0.157
	c0.759,0.104,1.392,0.229,1.896,0.379l-1.382,11.866l-5.354-0.134c-1.903,0-3.48,0.373-4.73,1.116
	c-1.248,0.744-2.198,1.8-2.854,3.167v23.465l6.245,1.339v7.806h-25.517V209.568z"/>
<path fill="#FDD41D" d="M457.393,218.312c-6.959,0-12.521-2.23-16.685-6.692c-4.165-4.46-6.246-10.126-6.246-16.997v-1.784
	c0-7.167,1.972-13.07,5.911-17.711c3.939-4.639,9.226-6.944,15.858-6.914c6.515,0,11.57,1.963,15.168,5.888
	c3.6,3.926,5.398,9.234,5.398,15.926v7.094h-28.819l-0.089,0.267c0.238,3.183,1.302,5.801,3.19,7.853
	c1.889,2.052,4.454,3.078,7.696,3.078c2.884,0,5.276-0.292,7.18-0.871c1.905-0.58,3.987-1.495,6.246-2.744l3.525,8.03
	c-1.993,1.577-4.573,2.9-7.74,3.97C464.819,217.776,461.288,218.312,457.393,218.312 M456.231,178.251
	c-2.408,0-4.312,0.922-5.709,2.765c-1.398,1.844-2.261,4.268-2.589,7.272l0.135,0.223h15.971v-1.16c0-2.766-0.646-4.975-1.94-6.625
	C460.805,179.077,458.849,178.251,456.231,178.251"/>
<path fill="#FDD41D" d="M514.604,217.375c-0.356-0.804-0.668-1.629-0.936-2.477c-0.269-0.848-0.477-1.701-0.625-2.565
	c-1.547,1.786-3.428,3.228-5.644,4.328c-2.215,1.1-4.75,1.651-7.606,1.651c-4.728,0-8.483-1.287-11.264-3.859
	c-2.781-2.573-4.172-6.075-4.172-10.505c0-4.521,1.814-8.016,5.442-10.484c3.629-2.469,8.952-3.703,15.972-3.703h6.646v-4.728
	c0-2.32-0.669-4.12-2.008-5.398s-3.315-1.918-5.933-1.918c-1.487,0-2.811,0.172-3.97,0.513c-1.161,0.342-2.097,0.751-2.812,1.227
	l-0.848,5.174h-9.814l0.045-10.706c2.38-1.606,5.107-2.959,8.187-4.059c3.077-1.101,6.432-1.651,10.06-1.651
	c5.978,0,10.833,1.466,14.565,4.395c3.732,2.929,5.598,7.1,5.598,12.513v19.941c0,0.743,0.008,1.441,0.023,2.097
	c0.015,0.653,0.066,1.277,0.155,1.873l3.971,0.535v7.807H514.604z M503.319,208.676c1.962,0,3.746-0.424,5.353-1.271
	c1.606-0.848,2.855-1.911,3.747-3.19v-7.359h-6.646c-2.767,0-4.863,0.646-6.29,1.939c-1.429,1.294-2.142,2.848-2.142,4.662
	c0,1.637,0.527,2.915,1.584,3.836C499.98,208.214,501.444,208.676,503.319,208.676"/>
<path fill="#FDD41D" d="M550.628,157.284v11.822h8.477v9.146h-8.477v24.58c0,1.874,0.388,3.211,1.16,4.015
	c0.773,0.803,1.814,1.204,3.123,1.204c0.892,0,1.673-0.037,2.342-0.111c0.668-0.074,1.42-0.2,2.252-0.378l1.116,9.413
	c-1.457,0.446-2.9,0.781-4.327,1.003c-1.428,0.224-2.975,0.334-4.64,0.334c-4.491,0-7.949-1.233-10.371-3.702
	c-2.425-2.467-3.637-6.379-3.637-11.732v-24.625h-7.093v-9.146h7.093v-11.822H550.628z"/>
<path fill="#FDD41D" d="M589.507,218.312c-6.959,0-12.521-2.23-16.686-6.692c-4.163-4.46-6.245-10.126-6.245-16.997v-1.784
	c0-7.167,1.972-13.07,5.911-17.711c3.94-4.639,9.227-6.944,15.859-6.914c6.514,0,11.569,1.963,15.168,5.888
	c3.599,3.926,5.397,9.234,5.397,15.926v7.094h-28.818l-0.09,0.267c0.238,3.183,1.301,5.801,3.189,7.853
	c1.89,2.052,4.455,3.078,7.696,3.078c2.885,0,5.278-0.292,7.181-0.871c1.904-0.58,3.987-1.495,6.246-2.744l3.524,8.03
	c-1.991,1.577-4.572,2.9-7.739,3.97C596.935,217.776,593.402,218.312,589.507,218.312 M588.347,178.251
	c-2.41,0-4.313,0.922-5.71,2.765c-1.397,1.844-2.26,4.268-2.588,7.272l0.135,0.223h15.969v-1.16c0-2.766-0.645-4.975-1.938-6.625
	C592.92,179.077,590.964,178.251,588.347,178.251"/>
<rect x="618.92" y="205.954" fill="#FDD41D" width="12.982" height="11.421"/>
<path fill="#B02E25" d="M489.837,289.149h-9.258l-1.605-8.453c-1.07-0.677-2.635-1.27-4.691-1.776
	c-2.058-0.507-4.241-0.761-6.553-0.761c-3.381,0-5.994,0.711-7.841,2.135c-1.846,1.423-2.768,3.261-2.768,5.516
	c0,2.085,0.964,3.797,2.896,5.136c1.93,1.339,5.263,2.755,9.996,4.247c6.791,1.888,11.941,4.383,15.449,7.483
	c3.508,3.099,5.262,7.17,5.262,12.215c0,5.27-2.085,9.425-6.256,12.469c-4.17,3.043-9.664,4.565-16.483,4.565
	c-4.875,0-9.279-0.775-13.21-2.325c-3.931-1.549-7.206-3.69-9.827-6.425v-12.85h9.553l1.311,8.749
	c1.24,1.016,2.923,1.853,5.05,2.515c2.128,0.663,4.502,0.994,7.124,0.994c3.382,0,5.952-0.69,7.713-2.072
	c1.761-1.38,2.643-3.225,2.643-5.536c0-2.366-0.839-4.269-2.516-5.706c-1.676-1.437-4.615-2.79-8.813-4.058
	c-7.298-2.113-12.821-4.621-16.568-7.524c-3.747-2.902-5.623-6.875-5.623-11.92c0-4.986,2.115-9.066,6.341-12.236
	c4.228-3.17,9.539-4.798,15.936-4.881c4.734,0,9.046,0.718,12.935,2.155s7.157,3.354,9.807,5.748V289.149z"/>
<path fill="#B02E25" d="M496.748,307.748c0-6.819,1.909-12.406,5.727-16.759c3.819-4.354,9.094-6.531,15.83-6.531
	c6.762,0,12.054,2.17,15.872,6.509c3.817,4.34,5.727,9.934,5.727,16.781v0.888c0,6.875-1.909,12.476-5.727,16.802
	c-3.818,4.326-9.081,6.488-15.787,6.488c-6.792,0-12.096-2.162-15.915-6.488c-3.817-4.326-5.727-9.927-5.727-16.802V307.748z
	 M509.09,308.635c0,4.17,0.733,7.516,2.197,10.038c1.466,2.522,3.833,3.783,7.103,3.783c3.184,0,5.515-1.268,6.994-3.804
	c1.48-2.536,2.219-5.875,2.219-10.018v-0.888c0-4.059-0.745-7.369-2.239-9.933c-1.493-2.565-3.846-3.848-7.059-3.848
	s-5.552,1.282-7.018,3.848c-1.464,2.563-2.197,5.874-2.197,9.933V308.635z"/>
<polygon fill="#B02E25" points="543.982,272.538 543.982,265.099 562.919,265.099 562.919,322.372 568.88,323.641 568.88,331.037 
	544.617,331.037 544.617,323.641 550.576,322.372 550.576,273.806 "/>
<polygon fill="#B02E25" points="593.162,292.742 588.852,293.544 594.895,314.003 595.698,318.314 595.951,318.314 596.839,314.003 
	602.8,293.587 598.404,292.742 598.404,285.303 619.158,285.303 619.158,292.742 615.184,293.376 601.7,331.039 589.908,331.039 
	576.381,293.376 572.409,292.742 572.409,285.303 593.162,285.303 "/>
<path fill="#B02E25" d="M645.301,331.925c-6.594,0-11.864-2.114-15.808-6.34c-3.946-4.228-5.919-9.595-5.919-16.105v-1.69
	c0-6.791,1.868-12.385,5.601-16.781c3.734-4.396,8.743-6.58,15.027-6.551c6.17,0,10.961,1.859,14.371,5.579
	c3.409,3.72,5.113,8.75,5.113,15.091v6.72h-27.305l-0.084,0.254c0.225,3.015,1.232,5.494,3.022,7.438
	c1.788,1.945,4.22,2.917,7.291,2.917c2.733,0,5.001-0.275,6.806-0.824c1.804-0.549,3.775-1.416,5.916-2.601l3.34,7.609
	c-1.887,1.494-4.332,2.748-7.334,3.763C652.339,331.417,648.991,331.925,645.301,331.925 M644.202,293.967
	c-2.283,0-4.087,0.874-5.411,2.622c-1.323,1.746-2.142,4.043-2.451,6.889l0.126,0.212h15.133v-1.1c0-2.621-0.613-4.713-1.838-6.276
	C648.534,294.75,646.681,293.967,644.202,293.967"/>
<rect x="673.17" y="320.217" fill="#B02E25" width="12.301" height="10.821"/>
<polygon fill="#1E84C5" points="522.204,118.609 518.947,118.609 524.933,113.614 518.947,108.619 522.204,108.619 528.187,113.614 
	"/>
<polygon fill="#1E84C5" points="528.275,118.609 525.019,118.609 531.004,113.614 525.019,108.619 528.275,108.619 534.258,113.614 
	"/>
<polygon fill="#1E84C5" points="534.347,118.609 531.091,118.609 537.075,113.614 531.091,108.619 534.347,108.619 540.329,113.614 
	"/>
<polygon fill="#FDD41D" points="657.326,232.222 654.07,232.222 660.055,227.228 654.07,222.232 657.326,222.232 663.31,227.228 "/>
<polygon fill="#FDD41D" points="663.397,232.222 660.142,232.222 666.127,227.228 660.142,222.232 663.397,222.232 669.382,227.228 
	"/>
<polygon fill="#FDD41D" points="669.469,232.222 666.213,232.222 672.198,227.228 666.213,222.232 669.469,222.232 675.452,227.228 
	"/>
<polygon fill="#B02E25" points="711.263,345.835 708.008,345.835 713.991,340.84 708.008,335.846 711.263,335.846 717.246,340.84 
	"/>
<polygon fill="#B02E25" points="717.334,345.835 714.079,345.835 720.063,340.84 714.079,335.846 717.334,335.846 723.318,340.84 
	"/>
<polygon fill="#B02E25" points="723.405,345.835 720.15,345.835 726.134,340.84 720.15,335.846 723.405,335.846 729.39,340.84 "/>
<path fill="#C29110" d="M130.274,161.119c0,5.177-4.197,9.375-9.375,9.375c-5.177,0-9.375-4.198-9.375-9.375
	c0-5.178,4.198-9.375,9.375-9.375C126.077,151.744,130.274,155.94,130.274,161.119"/>
<path fill="#C29110" d="M120.899,180.058c-10.443,0-18.938-8.498-18.938-18.94s8.496-18.938,18.938-18.938
	c10.442,0,18.938,8.496,18.938,18.938S131.341,180.058,120.899,180.058 M120.899,145.019c-8.878,0-16.1,7.222-16.1,16.1
	c0,8.878,7.221,16.102,16.1,16.102c8.878,0,16.1-7.224,16.1-16.102C136.999,152.24,129.777,145.019,120.899,145.019"/>
<polyline fill="none" stroke="#1E84C5" stroke-width="2.5" stroke-linecap="round" stroke-miterlimit="10" points="518.979,113.614 
	222.34,113.614 120.899,161.119 "/>
<polyline fill="none" stroke="#FDD41D" stroke-width="2.5" stroke-linecap="round" stroke-miterlimit="10" points="120.899,161.119 
	333.578,227.228 654.07,227.228 "/>
<polyline fill="none" stroke="#B02E25" stroke-width="2.5" stroke-linecap="round" stroke-miterlimit="10" points="120.899,161.119 
	444.82,340.84 708.008,340.84 "/>
</svg>
