<svg id="Layer_1" data-name="Layer 1" xmlns="http://www.w3.org/2000/svg" viewBox="0 0 1920 1080"><defs><style>.cls-1{fill:#ffab51;}.cls-1,.cls-2,.cls-3{opacity:0.6;}.cls-2,.cls-4{fill:#ffe679;}.cls-4{opacity:0.25;}</style></defs><title>Logo_ACM-ICPC_PHMap</title><polygon id="_Path_" data-name="&lt;Path&gt;" class="cls-1" points="1127.75 917.89 1161.43 917.89 1094.07 917.89 1094.07 884.21 1127.75 884.21 1127.75 917.89"/><polygon id="_Path_2" data-name="&lt;Path&gt;" class="cls-1" points="858.3 143.22 858.3 210.58 925.66 143.22 858.3 143.22"/><path id="_Path_3" data-name="&lt;Path&gt;" class="cls-2" d="M858.3,75.86a67.36,67.36,0,0,0-67.36,67.36l67.36,67.36A67.36,67.36,0,0,0,858.3,75.86Z"/><polygon id="_Path_4" data-name="&lt;Path&gt;" class="cls-1" points="757.26 210.58 757.26 277.94 824.62 277.94 757.26 210.58"/><polygon id="_Path_5" data-name="&lt;Path&gt;" class="cls-2" points="959.35 816.85 1026.71 816.85 1026.71 749.48 959.35 816.85"/><polygon id="_Path_6" data-name="&lt;Path&gt;" class="cls-1" points="1026.71 816.85 959.35 749.48 1026.71 749.48 1026.71 816.85"/><polygon id="_Path_7" data-name="&lt;Path&gt;" class="cls-2" points="790.94 547.4 790.94 480.03 723.58 480.03 790.94 547.4"/><polygon id="_Path_8" data-name="&lt;Path&gt;" class="cls-1" points="790.94 480.03 723.58 547.4 723.58 480.03 790.94 480.03"/><polygon id="_Path_9" data-name="&lt;Path&gt;" class="cls-2" points="824.62 210.58 757.26 277.94 824.62 277.94 891.98 277.94 891.98 210.58 824.62 210.58"/><path id="_Path_10" data-name="&lt;Path&gt;" class="cls-1" d="M892,244.26a33.68,33.68,0,0,1-67.36,0H892Z"/><path id="_Path_11" data-name="&lt;Path&gt;" class="cls-1" d="M824.62,412.67a33.68,33.68,0,1,1,0-67.36v67.36Z"/><path id="_Path_12" data-name="&lt;Path&gt;" class="cls-2" d="M824.62,412.67a33.68,33.68,0,1,1,0-67.36v67.36Z"/><path id="_Path_13" data-name="&lt;Path&gt;" class="cls-1" d="M723.58,648.44a33.68,33.68,0,0,1-67.36,0h67.36Z"/><path id="_Path_14" data-name="&lt;Path&gt;" class="cls-2" d="M1026.71,581.08a67.36,67.36,0,1,1-134.73,0h134.73Z"/><path id="_Path_15" data-name="&lt;Path&gt;" class="cls-2" d="M959.35,345.31a33.68,33.68,0,0,1,0,67.36V345.31Z"/><path id="_Path_16" data-name="&lt;Path&gt;" class="cls-2" d="M1026.72,749.48a67.36,67.36,0,1,1,0,134.72V749.48Z"/><polygon id="_Path_17" data-name="&lt;Path&gt;" class="cls-1" points="824.62 277.94 790.94 277.94 790.94 311.63 824.62 311.63 824.62 345.31 858.3 345.31 858.3 311.63 858.3 277.94 824.62 277.94"/><polygon id="_Path_18" data-name="&lt;Path&gt;" class="cls-2" points="790.94 277.94 790.94 311.63 824.62 311.63 824.62 345.31 858.3 345.31 790.94 277.94"/><polygon id="_Path_19" data-name="&lt;Path&gt;" class="cls-2" points="1060.39 446.35 1060.39 412.67 1026.71 412.67 1026.71 446.35 993.03 446.35 993.03 480.03 1026.71 480.03 1060.39 480.03 1060.39 446.35"/><polygon id="_Path_20" data-name="&lt;Path&gt;" class="cls-1" points="1060.39 412.67 1026.71 412.67 1026.71 446.35 993.03 446.35 993.03 480.03 1060.39 412.67"/><polygon id="_Path_21" data-name="&lt;Path&gt;" class="cls-2" points="925.66 412.67 858.3 345.31 824.62 345.31 824.62 412.67 824.62 378.99 858.3 378.99 858.3 412.67 925.66 412.67"/><polygon id="_Path_22" data-name="&lt;Path&gt;" class="cls-1" points="925.66 345.31 858.3 412.67 925.66 412.67 993.03 345.31 925.66 345.31"/><polygon id="_Path_23" data-name="&lt;Path&gt;" class="cls-2" points="959.35 513.71 891.98 581.08 891.98 513.71 959.35 513.71"/><path id="_Path_24" data-name="&lt;Path&gt;" class="cls-1" d="M835.85,412.67a22.45,22.45,0,0,0-16.34,37.84h0l18.13,24.34a11.25,11.25,0,0,0,.95,1.27l0,0.06h0a11.22,11.22,0,0,0,19.67-7.38V435.12A22.45,22.45,0,0,0,835.85,412.67Z"/><path id="_Path_25" data-name="&lt;Path&gt;" class="cls-1" d="M925.67,513.71a33.67,33.67,0,0,0-24.52,56.76h0L928.33,607a16.88,16.88,0,0,0,1.42,1.91l0.07,0.09h0a16.83,16.83,0,0,0,29.51-11.07V547.39A33.68,33.68,0,0,0,925.67,513.71Z"/><path id="_Path_26" data-name="&lt;Path&gt;" class="cls-2" d="M925.67,783.16a33.67,33.67,0,0,0-24.52,56.76h0l27.19,36.51a16.88,16.88,0,0,0,1.42,1.91l0.07,0.09h0a16.83,16.83,0,0,0,29.51-11.07V816.85A33.68,33.68,0,0,0,925.67,783.16Z"/><path id="_Path_27" data-name="&lt;Path&gt;" class="cls-2" d="M701.12,614.76a22.45,22.45,0,0,0-16.34,37.84h0l18.13,24.34a11.25,11.25,0,0,0,.95,1.27l0,0.06h0a11.22,11.22,0,0,0,19.67-7.38V637.21A22.45,22.45,0,0,0,701.12,614.76Z"/><polygon id="_Path_28" data-name="&lt;Path&gt;" class="cls-2" points="858.3 412.67 790.94 480.03 858.3 480.03 858.3 412.67"/><polygon id="_Path_29" data-name="&lt;Path&gt;" class="cls-2" points="1060.39 513.71 1127.75 513.71 1094.07 547.39 1060.39 513.71"/><g id="_Group_" data-name="&lt;Group&gt;" class="cls-3"><path id="_Path_30" data-name="&lt;Path&gt;" class="cls-4" d="M1094.08,783.16V749.48h-33.68A33.68,33.68,0,0,1,1094.08,783.16Z"/><path id="_Path_31" data-name="&lt;Path&gt;" class="cls-4" d="M1060.4,816.85h33.68V783.16A33.68,33.68,0,0,1,1060.4,816.85Z"/><path id="_Path_32" data-name="&lt;Path&gt;" class="cls-4" d="M1060.39,816.85a33.68,33.68,0,0,1-33.68-33.68v33.68h33.68Z"/><path id="_Path_33" data-name="&lt;Path&gt;" class="cls-4" d="M1026.71,783.16a33.68,33.68,0,0,1,33.68-33.68h-33.68v33.68Z"/></g><polygon id="_Path_34" data-name="&lt;Path&gt;" class="cls-1" points="757.26 581.08 723.58 614.76 757.26 614.76 790.94 614.76 757.26 581.08"/><polygon id="_Path_35" data-name="&lt;Path&gt;" class="cls-2" points="1094.07 581.08 1094.07 614.76 1060.39 614.76 1094.07 581.08"/><polygon id="_Path_36" data-name="&lt;Path&gt;" class="cls-1" points="1127.75 581.08 1127.75 614.76 1094.07 614.76 1127.75 581.08"/><polygon id="_Path_37" data-name="&lt;Path&gt;" class="cls-1" points="993.03 547.4 993.03 480.03 1060.39 513.71 993.03 547.4"/><polygon id="_Path_38" data-name="&lt;Path&gt;" class="cls-2" points="1127.75 614.76 1195.12 614.76 1161.44 682.12 1127.75 614.76"/><polygon id="_Path_39" data-name="&lt;Path&gt;" class="cls-1" points="1195.12 682.12 1127.75 682.12 1161.43 614.76 1195.12 682.12"/><polygon id="_Path_40" data-name="&lt;Path&gt;" class="cls-2" points="723.58 547.4 790.94 547.4 757.26 614.76 723.58 547.4"/><polygon id="_Path_41" data-name="&lt;Path&gt;" class="cls-2" points="1228.8 783.16 1228.8 749.48 1127.75 749.48 1127.75 749.48 1094.07 749.48 1094.07 749.48 1094.07 783.16 1094.07 850.53 1094.07 884.21 1127.75 884.21 1228.8 884.21 1228.8 850.53 1127.75 850.53 1127.75 783.16 1228.8 783.16"/><circle id="_Path_42" data-name="&lt;Path&gt;" class="cls-1" cx="1195.12" cy="783.16" r="33.68"/><polygon id="_Path_43" data-name="&lt;Path&gt;" class="cls-1" points="891.98 816.85 891.98 850.53 925.66 816.85 891.98 816.85"/><polygon id="_Path_44" data-name="&lt;Path&gt;" class="cls-1" points="959.35 884.21 959.35 850.53 925.66 884.21 959.35 884.21"/><path id="_Path_45" data-name="&lt;Path&gt;" class="cls-2" d="M1127.75,951.57a33.68,33.68,0,1,1,0-67.36v67.36Z"/><path id="_Path_46" data-name="&lt;Path&gt;" class="cls-1" d="M1161.43,917.89a33.68,33.68,0,0,1-67.36,0h67.36Z"/><polyline id="_Path_47" data-name="&lt;Path&gt;" class="cls-2" points="993.03 648.44 959.35 682.12 993.03 715.8 1026.72 682.12 993.03 648.44"/><polyline id="_Path_48" data-name="&lt;Path&gt;" class="cls-1" points="1127.76 816.85 1094.08 850.53 1127.76 884.21 1161.44 850.53 1127.76 816.85"/><polyline id="_Path_49" data-name="&lt;Path&gt;" class="cls-2" points="925.67 749.48 891.99 783.16 925.67 816.85 959.35 783.16 925.67 749.48"/><polyline id="_Path_50" data-name="&lt;Path&gt;" class="cls-1" points="959.35 648.44 1026.71 648.44 959.35 715.8 959.35 648.44"/><polygon id="_Path_51" data-name="&lt;Path&gt;" class="cls-1" points="1060.39 547.4 1094.07 581.08 1127.75 547.4 1060.39 547.4"/><path id="_Path_52" data-name="&lt;Path&gt;" class="cls-1" d="M1094.07,547.39h33.68V513.71A33.68,33.68,0,0,1,1094.07,547.39Z"/><path id="_Path_53" data-name="&lt;Path&gt;" class="cls-2" d="M1060.39,513.71A33.68,33.68,0,0,1,1094.07,480h-33.68L993,513.72l67.36,33.68h33.68A33.68,33.68,0,0,1,1060.39,513.71Z"/><path id="_Path_54" data-name="&lt;Path&gt;" class="cls-1" d="M1127.75,513.71V480h-33.68A33.68,33.68,0,0,1,1127.75,513.71Z"/><polygon id="_Path_55" data-name="&lt;Path&gt;" class="cls-1" points="790.94 143.22 858.3 75.86 790.94 75.86 790.94 143.22"/></svg>