<?xml version="1.0" encoding="utf-8"?>
<!-- Generator: Adobe Illustrator 16.0.0, SVG Export Plug-In . SVG Version: 6.00 Build 0)  -->
<!DOCTYPE svg PUBLIC "-//W3C//DTD SVG 1.1//EN" "http://www.w3.org/Graphics/SVG/1.1/DTD/svg11.dtd">
<svg version="1.1" id="Layer_1" xmlns="http://www.w3.org/2000/svg" xmlns:xlink="http://www.w3.org/1999/xlink" x="0px" y="0px"
	 width="506.302px" height="676.209px" viewBox="0 0 506.302 676.209" enable-background="new 0 0 506.302 676.209"
	 xml:space="preserve">
<g opacity="0.15">
	<g>
		<defs>
			<rect id="SVGID_1_" x="152.505" y="45.897" width="45.896" height="45.896"/>
		</defs>
		<clipPath id="SVGID_2_">
			<use xlink:href="#SVGID_1_"  overflow="visible"/>
		</clipPath>
		<polygon clip-path="url(#SVGID_2_)" fill="#F7B661" points="198.401,45.897 198.401,91.793 152.504,45.897 		"/>
	</g>
</g>
<g opacity="0.15">
	<g>
		<defs>
			<rect id="SVGID_3_" x="198.401" width="45.896" height="45.897"/>
		</defs>
		<clipPath id="SVGID_4_">
			<use xlink:href="#SVGID_3_"  overflow="visible"/>
		</clipPath>
		<polygon clip-path="url(#SVGID_4_)" fill="#F7B661" points="244.297,45.897 198.401,0 244.297,0 		"/>
	</g>
</g>
<g opacity="0.15">
	<g>
		<defs>
			<rect id="SVGID_5_" x="221.349" y="91.793" width="45.896" height="45.896"/>
		</defs>
		<clipPath id="SVGID_6_">
			<use xlink:href="#SVGID_5_"  overflow="visible"/>
		</clipPath>
		<polygon clip-path="url(#SVGID_6_)" fill="#F7B661" points="267.245,91.793 267.245,137.69 221.349,137.69 		"/>
	</g>
</g>
<g opacity="0.15">
	<g>
		<defs>
			<rect id="SVGID_7_" x="244.297" y="275.379" width="45.897" height="45.897"/>
		</defs>
		<clipPath id="SVGID_8_">
			<use xlink:href="#SVGID_7_"  overflow="visible"/>
		</clipPath>
		<polygon clip-path="url(#SVGID_8_)" fill="#F7B661" points="244.297,321.276 244.297,275.379 290.194,275.379 		"/>
	</g>
</g>
<g opacity="0.15">
	<g>
		<defs>
			<rect id="SVGID_9_" x="244.297" y="275.379" width="45.897" height="45.897"/>
		</defs>
		<clipPath id="SVGID_10_">
			<use xlink:href="#SVGID_9_"  overflow="visible"/>
		</clipPath>
		<polygon clip-path="url(#SVGID_10_)" fill="#F7B661" points="244.297,275.379 290.194,321.276 290.194,275.379 		"/>
	</g>
</g>
<g opacity="0.15">
	<g>
		<defs>
			<rect id="SVGID_11_" x="175.453" y="91.793" width="91.792" height="45.896"/>
		</defs>
		<clipPath id="SVGID_12_">
			<use xlink:href="#SVGID_11_"  overflow="visible"/>
		</clipPath>
		<polygon clip-path="url(#SVGID_12_)" fill="#F7B661" points="221.35,91.793 267.245,137.69 221.35,137.69 175.453,137.69 
			175.453,91.793 		"/>
	</g>
</g>
<g opacity="0.15">
	<g>
		<defs>
			<rect id="SVGID_13_" x="175.453" y="114.741" width="45.896" height="22.949"/>
		</defs>
		<clipPath id="SVGID_14_">
			<use xlink:href="#SVGID_13_"  overflow="visible"/>
		</clipPath>
		<path clip-path="url(#SVGID_14_)" fill="#F7B661" d="M175.453,114.741c0,12.674,10.274,22.948,22.949,22.948
			c12.672,0,22.948-10.274,22.948-22.948H175.453z"/>
	</g>
</g>
<g opacity="0.15">
	<g>
		<defs>
			<rect id="SVGID_15_" x="221.349" y="183.586" width="22.949" height="45.897"/>
		</defs>
		<clipPath id="SVGID_16_">
			<use xlink:href="#SVGID_15_"  overflow="visible"/>
		</clipPath>
		<path clip-path="url(#SVGID_16_)" fill="#F7B661" d="M221.35,229.483c12.673,0,22.947-10.274,22.947-22.947
			c0-12.675-10.274-22.949-22.947-22.949V229.483z"/>
	</g>
</g>
<g opacity="0.15">
	<g>
		<defs>
			<rect id="SVGID_17_" x="221.349" y="183.586" width="22.949" height="45.897"/>
		</defs>
		<clipPath id="SVGID_18_">
			<use xlink:href="#SVGID_17_"  overflow="visible"/>
		</clipPath>
		<path clip-path="url(#SVGID_18_)" fill="#F7B661" d="M221.35,229.483c12.673,0,22.947-10.274,22.947-22.947
			c0-12.675-10.274-22.949-22.947-22.949V229.483z"/>
	</g>
</g>
<g opacity="0.15">
	<g>
		<defs>
			<rect id="SVGID_19_" x="290.194" y="390.121" width="45.896" height="22.948"/>
		</defs>
		<clipPath id="SVGID_20_">
			<use xlink:href="#SVGID_19_"  overflow="visible"/>
		</clipPath>
		<path clip-path="url(#SVGID_20_)" fill="#F7B661" d="M290.194,390.121c0,12.674,10.274,22.947,22.947,22.947
			c12.676,0,22.949-10.273,22.949-22.947H290.194z"/>
	</g>
</g>
<g opacity="0.15">
	<g>
		<defs>
			<rect id="SVGID_21_" x="106.608" y="183.586" width="22.948" height="45.897"/>
		</defs>
		<clipPath id="SVGID_22_">
			<use xlink:href="#SVGID_21_"  overflow="visible"/>
		</clipPath>
		<path clip-path="url(#SVGID_22_)" fill="#F7B661" d="M129.556,183.586c-12.674,0-22.948,10.274-22.948,22.948
			c0,12.674,10.274,22.949,22.948,22.949V183.586z"/>
	</g>
</g>
<g opacity="0.15">
	<g>
		<defs>
			<rect id="SVGID_23_" x="198.401" y="137.69" width="45.896" height="45.896"/>
		</defs>
		<clipPath id="SVGID_24_">
			<use xlink:href="#SVGID_23_"  overflow="visible"/>
		</clipPath>
		<polygon clip-path="url(#SVGID_24_)" fill="#F7B661" points="221.35,137.69 244.296,137.69 244.296,160.638 221.35,160.638 
			221.35,183.586 198.401,183.586 198.401,160.638 198.401,137.69 		"/>
	</g>
</g>
<g opacity="0.15">
	<g>
		<defs>
			<rect id="SVGID_25_" x="198.401" y="137.69" width="45.896" height="45.896"/>
		</defs>
		<clipPath id="SVGID_26_">
			<use xlink:href="#SVGID_25_"  overflow="visible"/>
		</clipPath>
		<polygon clip-path="url(#SVGID_26_)" fill="#F7B661" points="244.297,137.69 244.297,160.638 221.35,160.638 221.35,183.586 
			198.401,183.586 		"/>
	</g>
</g>
<g opacity="0.15">
	<g>
		<defs>
			<rect id="SVGID_27_" x="152.505" y="183.586" width="68.844" height="45.897"/>
		</defs>
		<clipPath id="SVGID_28_">
			<use xlink:href="#SVGID_27_"  overflow="visible"/>
		</clipPath>
		<polygon clip-path="url(#SVGID_28_)" fill="#F7B661" points="152.504,229.483 198.401,183.586 221.349,183.586 221.349,229.483 
			221.349,206.536 198.401,206.536 198.401,229.483 		"/>
	</g>
</g>
<g opacity="0.15">
	<g>
		<defs>
			<rect id="SVGID_29_" x="106.608" y="183.586" width="91.792" height="45.897"/>
		</defs>
		<clipPath id="SVGID_30_">
			<use xlink:href="#SVGID_29_"  overflow="visible"/>
		</clipPath>
		<polygon clip-path="url(#SVGID_30_)" fill="#F7B661" points="152.504,183.586 198.401,229.483 152.504,229.483 106.608,183.586 		
			"/>
	</g>
</g>
<g opacity="0.15">
	<g>
		<defs>
			<rect id="SVGID_31_" x="198.401" y="229.483" width="30.598" height="45.896"/>
		</defs>
		<clipPath id="SVGID_32_">
			<use xlink:href="#SVGID_31_"  overflow="visible"/>
		</clipPath>
		<path clip-path="url(#SVGID_32_)" fill="#F7B661" d="M213.7,229.483c8.45,0,15.299,6.85,15.299,15.299
			c0,4.058-1.583,7.746-4.164,10.485h0.005l-12.35,16.582c-0.196,0.304-0.411,0.595-0.647,0.869l-0.033,0.042l-0.004-0.001
			c-1.403,1.604-3.458,2.621-5.755,2.621c-4.224,0-7.649-3.424-7.649-7.649v-18.02v-4.928
			C198.401,236.333,205.25,229.483,213.7,229.483"/>
	</g>
</g>
<g opacity="0.15">
	<g>
		<defs>
			<rect id="SVGID_33_" x="290.194" y="367.173" width="30.598" height="45.896"/>
		</defs>
		<clipPath id="SVGID_34_">
			<use xlink:href="#SVGID_33_"  overflow="visible"/>
		</clipPath>
		<path clip-path="url(#SVGID_34_)" fill="#F7B661" d="M305.493,367.173c8.449,0,15.299,6.85,15.299,15.299
			c0,4.059-1.584,7.745-4.164,10.484h0.005l-12.351,16.583c-0.195,0.304-0.411,0.595-0.646,0.868l-0.032,0.042l-0.005-0.001
			c-1.402,1.604-3.458,2.62-5.756,2.62c-4.224,0-7.649-3.424-7.649-7.648V387.4v-4.929
			C290.193,374.022,297.043,367.173,305.493,367.173"/>
	</g>
</g>
<g opacity="0.15">
	<g>
		<defs>
			<rect id="SVGID_35_" x="198.401" y="229.483" width="45.896" height="45.896"/>
		</defs>
		<clipPath id="SVGID_36_">
			<use xlink:href="#SVGID_35_"  overflow="visible"/>
		</clipPath>
		<polygon clip-path="url(#SVGID_36_)" fill="#F7B661" points="198.401,229.483 244.297,275.379 198.401,275.379 		"/>
	</g>
</g>
<g opacity="0.15">
	<g>
		<defs>
			<rect id="SVGID_37_" x="152.505" width="91.792" height="91.793"/>
		</defs>
		<clipPath id="SVGID_38_">
			<use xlink:href="#SVGID_37_"  overflow="visible"/>
		</clipPath>
		<path clip-path="url(#SVGID_38_)" fill="#F7B661" d="M198.401,0c25.349,0,45.896,20.549,45.896,45.897l-45.896,45.896
			c-25.349,0-45.897-20.548-45.897-45.896C152.504,20.549,173.052,0,198.401,0"/>
	</g>
</g>
<g opacity="0.15">
	<g>
		<defs>
			<rect id="SVGID_39_" x="244.297" y="344.224" width="45.897" height="22.949"/>
		</defs>
		<clipPath id="SVGID_40_">
			<use xlink:href="#SVGID_39_"  overflow="visible"/>
		</clipPath>
		<polygon clip-path="url(#SVGID_40_)" fill="#F7B661" points="267.245,344.224 290.193,367.172 267.245,367.172 244.297,367.172 		
			"/>
	</g>
</g>
<g opacity="0.15">
	<g>
		<defs>
			<rect id="SVGID_41_" x="244.297" y="321.276" width="45.897" height="45.896"/>
		</defs>
		<clipPath id="SVGID_42_">
			<use xlink:href="#SVGID_41_"  overflow="visible"/>
		</clipPath>
		<polygon clip-path="url(#SVGID_42_)" fill="#F7B661" points="290.194,321.276 244.297,321.276 267.244,367.173 		"/>
	</g>
</g>
<g opacity="0.15">
	<g>
		<defs>
			<rect id="SVGID_43_" x="137.688" y="630.313" width="45.897" height="45.896"/>
		</defs>
		<clipPath id="SVGID_44_">
			<use xlink:href="#SVGID_43_"  overflow="visible"/>
		</clipPath>
		<polygon clip-path="url(#SVGID_44_)" fill="#F7B661" points="183.584,630.313 137.688,630.313 137.688,676.209 		"/>
	</g>
</g>
<g opacity="0.15">
	<g>
		<defs>
			<rect id="SVGID_45_" x="137.688" y="630.313" width="45.897" height="45.896"/>
		</defs>
		<clipPath id="SVGID_46_">
			<use xlink:href="#SVGID_45_"  overflow="visible"/>
		</clipPath>
		<polygon clip-path="url(#SVGID_46_)" fill="#F7B661" points="137.688,630.313 183.584,676.209 137.688,676.209 		"/>
	</g>
</g>
<g opacity="0.15">
	<g>
		<defs>
			<rect id="SVGID_47_" x="91.791" y="584.424" width="45.893" height="91.785"/>
		</defs>
		<clipPath id="SVGID_48_">
			<use xlink:href="#SVGID_47_"  overflow="visible"/>
		</clipPath>
		<path clip-path="url(#SVGID_48_)" fill="#F7B661" d="M137.684,676.209c-25.346,0-45.893-20.547-45.893-45.894
			c0-25.345,20.547-45.892,45.893-45.892V676.209z"/>
	</g>
</g>
<g opacity="0.15">
	<g>
		<defs>
			<rect id="SVGID_49_" x="183.584" y="584.417" width="45.897" height="68.844"/>
		</defs>
		<clipPath id="SVGID_50_">
			<use xlink:href="#SVGID_49_"  overflow="visible"/>
		</clipPath>
		<path clip-path="url(#SVGID_50_)" fill="#F7B661" d="M206.534,653.261c12.672,0,22.948-10.273,22.948-22.947
			c0-6.091-2.376-11.62-6.244-15.728l0.006-0.001l-18.527-24.873c-0.292-0.457-0.615-0.893-0.969-1.303l-0.048-0.064l-0.007,0.003
			c-2.104-2.404-5.188-3.933-8.633-3.933c-6.337,0-11.473,5.14-11.473,11.475v27.03v7.394
			C183.586,642.987,193.86,653.261,206.534,653.261"/>
	</g>
</g>
<g opacity="0.15">
	<g>
		<defs>
			<rect id="SVGID_51_" x="91.791" y="630.313" width="45.896" height="45.896"/>
		</defs>
		<clipPath id="SVGID_52_">
			<use xlink:href="#SVGID_51_"  overflow="visible"/>
		</clipPath>
		<g opacity="0.25" clip-path="url(#SVGID_52_)">
			<g>
				<defs>
					<rect id="SVGID_53_" x="91.791" y="653.261" width="22.949" height="22.948"/>
				</defs>
				<clipPath id="SVGID_54_">
					<use xlink:href="#SVGID_53_"  overflow="visible"/>
				</clipPath>
				<path clip-path="url(#SVGID_54_)" fill="#F7B661" d="M91.792,653.261v22.948h22.948
					C102.066,676.209,91.792,665.935,91.792,653.261"/>
			</g>
		</g>
		<g opacity="0.25" clip-path="url(#SVGID_52_)">
			<g>
				<defs>
					<rect id="SVGID_55_" x="91.791" y="630.313" width="22.948" height="22.948"/>
				</defs>
				<clipPath id="SVGID_56_">
					<use xlink:href="#SVGID_55_"  overflow="visible"/>
				</clipPath>
				<path clip-path="url(#SVGID_56_)" fill="#F7B661" d="M114.739,630.313H91.792v22.947
					C91.792,640.588,102.065,630.313,114.739,630.313"/>
			</g>
		</g>
		<g opacity="0.25" clip-path="url(#SVGID_52_)">
			<g>
				<defs>
					<rect id="SVGID_57_" x="114.741" y="630.313" width="22.946" height="22.948"/>
				</defs>
				<clipPath id="SVGID_58_">
					<use xlink:href="#SVGID_57_"  overflow="visible"/>
				</clipPath>
				<path clip-path="url(#SVGID_58_)" fill="#F7B661" d="M114.742,630.313c12.673,0.001,22.945,10.275,22.945,22.947v-22.947
					H114.742z"/>
			</g>
		</g>
		<g opacity="0.25" clip-path="url(#SVGID_52_)">
			<g>
				<defs>
					<rect id="SVGID_59_" x="114.74" y="653.261" width="22.948" height="22.948"/>
				</defs>
				<clipPath id="SVGID_60_">
					<use xlink:href="#SVGID_59_"  overflow="visible"/>
				</clipPath>
				<path clip-path="url(#SVGID_60_)" fill="#F7B661" d="M137.688,653.261c0,12.674-10.274,22.948-22.948,22.948h22.948V653.261z"/>
			</g>
		</g>
	</g>
</g>
<g opacity="0.15">
	<g>
		<defs>
			<rect id="SVGID_61_" y="584.417" width="91.791" height="91.792"/>
		</defs>
		<clipPath id="SVGID_62_">
			<use xlink:href="#SVGID_61_"  overflow="visible"/>
		</clipPath>
		<polygon clip-path="url(#SVGID_62_)" fill="#F7B661" points="-0.001,653.261 -0.001,676.209 68.843,676.209 68.843,676.21 
			91.792,676.21 91.792,676.209 91.792,653.261 91.792,607.364 91.792,584.417 68.843,584.417 -0.001,584.417 -0.001,607.364 
			68.843,607.364 68.843,653.261 		"/>
	</g>
</g>
<g opacity="0.15">
	<g>
		<defs>
			<rect id="SVGID_63_" y="630.313" width="45.894" height="45.896"/>
		</defs>
		<clipPath id="SVGID_64_">
			<use xlink:href="#SVGID_63_"  overflow="visible"/>
		</clipPath>
		<path clip-path="url(#SVGID_64_)" fill="#F7B661" d="M-0.001,653.261c0-12.673,10.274-22.947,22.948-22.947
			c12.675,0,22.949,10.274,22.949,22.947c0,12.674-10.274,22.948-22.949,22.948C10.272,676.209-0.001,665.935-0.001,653.261"/>
	</g>
</g>
<g opacity="0.15">
	<g>
		<defs>
			<rect id="SVGID_65_" x="206.534" y="607.364" width="22.948" height="22.948"/>
		</defs>
		<clipPath id="SVGID_66_">
			<use xlink:href="#SVGID_65_"  overflow="visible"/>
		</clipPath>
		<polygon clip-path="url(#SVGID_66_)" fill="#F7B661" points="229.481,630.313 229.481,607.364 206.532,630.313 		"/>
	</g>
</g>
<g opacity="0.15">
	<g>
		<defs>
			<rect id="SVGID_67_" x="183.584" y="584.417" width="22.949" height="22.947"/>
		</defs>
		<clipPath id="SVGID_68_">
			<use xlink:href="#SVGID_67_"  overflow="visible"/>
		</clipPath>
		<polygon clip-path="url(#SVGID_68_)" fill="#F7B661" points="183.584,584.417 183.584,607.363 206.534,584.417 		"/>
	</g>
</g>
<g opacity="0.15">
	<g>
		<defs>
			<rect id="SVGID_69_" x="68.843" y="538.52" width="22.948" height="45.897"/>
		</defs>
		<clipPath id="SVGID_70_">
			<use xlink:href="#SVGID_69_"  overflow="visible"/>
		</clipPath>
		<path clip-path="url(#SVGID_70_)" fill="#F7B661" d="M68.843,538.52c12.674,0,22.948,10.274,22.948,22.948
			c0,12.675-10.274,22.949-22.948,22.949V538.52z"/>
	</g>
</g>
<g opacity="0.15">
	<g>
		<defs>
			<rect id="SVGID_71_" x="45.894" y="538.52" width="45.897" height="22.948"/>
		</defs>
		<clipPath id="SVGID_72_">
			<use xlink:href="#SVGID_71_"  overflow="visible"/>
		</clipPath>
		<path clip-path="url(#SVGID_72_)" fill="#F7B661" d="M45.896,561.468c0-12.674,10.274-22.948,22.948-22.948
			c12.675,0,22.949,10.274,22.949,22.948H45.896z"/>
	</g>
</g>
<g opacity="0.15">
	<g>
		<defs>
			<rect id="SVGID_73_" x="45.894" y="561.468" width="45.897" height="22.949"/>
		</defs>
		<clipPath id="SVGID_74_">
			<use xlink:href="#SVGID_73_"  overflow="visible"/>
		</clipPath>
		<polygon clip-path="url(#SVGID_74_)" fill="#F7B661" points="68.843,561.468 45.896,561.468 91.791,561.468 91.791,584.415 
			68.843,584.415 		"/>
	</g>
</g>
<g opacity="0.15">
	<g>
		<defs>
			<rect id="SVGID_75_" x="45.891" y="584.417" width="45.897" height="45.896"/>
		</defs>
		<clipPath id="SVGID_76_">
			<use xlink:href="#SVGID_75_"  overflow="visible"/>
		</clipPath>
		
			<rect x="52.613" y="591.138" transform="matrix(-0.7071 0.7071 -0.7071 -0.7071 546.9928 988.1542)" clip-path="url(#SVGID_76_)" fill="#F7B661" width="32.453" height="32.453"/>
	</g>
</g>
<g opacity="0.15">
	<g>
		<defs>
			<rect id="SVGID_77_" x="183.581" y="630.313" width="45.896" height="45.896"/>
		</defs>
		<clipPath id="SVGID_78_">
			<use xlink:href="#SVGID_77_"  overflow="visible"/>
		</clipPath>
		
			<rect x="190.302" y="637.034" transform="matrix(-0.7071 0.7071 -0.7071 -0.7071 814.4952 969.1414)" clip-path="url(#SVGID_78_)" fill="#F7B661" width="32.453" height="32.453"/>
	</g>
</g>
<g opacity="0.15">
	<g>
		<defs>
			<rect id="SVGID_79_" x="414.51" y="518.207" width="45.896" height="91.792"/>
		</defs>
		<clipPath id="SVGID_80_">
			<use xlink:href="#SVGID_79_"  overflow="visible"/>
		</clipPath>
		<path clip-path="url(#SVGID_80_)" fill="#F7B661" d="M414.51,518.207c25.348,0,45.896,20.548,45.896,45.896
			c0,25.349-20.549,45.896-45.896,45.896V518.207z"/>
	</g>
</g>
<g opacity="0.15">
	<g>
		<defs>
			<rect id="SVGID_81_" x="299.769" y="495.259" width="45.896" height="45.895"/>
		</defs>
		<clipPath id="SVGID_82_">
			<use xlink:href="#SVGID_81_"  overflow="visible"/>
		</clipPath>
		<polygon clip-path="url(#SVGID_82_)" fill="#F7B661" points="322.716,495.258 299.769,495.258 299.769,518.205 322.716,518.205 
			322.716,541.154 345.664,541.154 345.664,518.205 345.664,495.258 		"/>
	</g>
</g>
<g opacity="0.15">
	<g>
		<defs>
			<rect id="SVGID_83_" x="299.769" y="495.259" width="45.896" height="45.896"/>
		</defs>
		<clipPath id="SVGID_84_">
			<use xlink:href="#SVGID_83_"  overflow="visible"/>
		</clipPath>
		<polygon clip-path="url(#SVGID_84_)" fill="#F7B661" points="299.769,495.258 299.769,518.205 322.716,518.205 322.716,541.154 
			345.665,541.154 		"/>
	</g>
</g>
<g opacity="0.15">
	<g>
		<defs>
			<rect id="SVGID_85_" x="368.613" y="564.103" width="45.896" height="45.896"/>
		</defs>
		<clipPath id="SVGID_86_">
			<use xlink:href="#SVGID_85_"  overflow="visible"/>
		</clipPath>
		<polygon clip-path="url(#SVGID_86_)" fill="#F7B661" points="368.613,564.103 414.51,609.999 368.613,609.999 		"/>
	</g>
</g>
<g opacity="0.15">
	<g>
		<defs>
			<rect id="SVGID_87_" x="368.611" y="564.103" width="68.845" height="45.896"/>
		</defs>
		<clipPath id="SVGID_88_">
			<use xlink:href="#SVGID_87_"  overflow="visible"/>
		</clipPath>
		<path clip-path="url(#SVGID_88_)" fill="#F7B661" d="M368.611,587.051c0,12.674,10.273,22.948,22.947,22.948
			c6.09,0,11.62-2.376,15.728-6.245l0.001,0.007l24.874-18.526c0.457-0.292,0.892-0.616,1.302-0.97l0.064-0.048l-0.004-0.008
			c2.406-2.103,3.933-5.187,3.933-8.632c0-6.337-5.138-11.474-11.475-11.474h-27.029h-7.394
			C378.885,564.104,368.611,574.378,368.611,587.051"/>
	</g>
</g>
<g opacity="0.15">
	<g>
		<defs>
			<rect id="SVGID_89_" x="368.611" y="449.362" width="22.949" height="45.896"/>
		</defs>
		<clipPath id="SVGID_90_">
			<use xlink:href="#SVGID_89_"  overflow="visible"/>
		</clipPath>
		<polygon clip-path="url(#SVGID_90_)" fill="#F7B661" points="368.611,495.258 368.611,449.361 391.56,472.31 		"/>
	</g>
</g>
<g opacity="0.15">
	<g>
		<defs>
			<rect id="SVGID_91_" x="414.51" y="472.31" width="22.947" height="22.949"/>
		</defs>
		<clipPath id="SVGID_92_">
			<use xlink:href="#SVGID_91_"  overflow="visible"/>
		</clipPath>
		<polygon clip-path="url(#SVGID_92_)" fill="#F7B661" points="414.51,472.31 437.457,472.31 437.457,495.258 		"/>
	</g>
</g>
<g opacity="0.15">
	<g>
		<defs>
			<rect id="SVGID_93_" x="414.51" y="449.362" width="22.947" height="22.947"/>
		</defs>
		<clipPath id="SVGID_94_">
			<use xlink:href="#SVGID_93_"  overflow="visible"/>
		</clipPath>
		<polygon clip-path="url(#SVGID_94_)" fill="#F7B661" points="414.51,449.361 437.457,449.361 437.457,472.309 		"/>
	</g>
</g>
<g opacity="0.15">
	<g>
		<defs>
			<rect id="SVGID_95_" x="345.665" y="495.259" width="45.896" height="45.895"/>
		</defs>
		<clipPath id="SVGID_96_">
			<use xlink:href="#SVGID_95_"  overflow="visible"/>
		</clipPath>
		<polygon clip-path="url(#SVGID_96_)" fill="#F7B661" points="391.561,541.154 345.665,541.154 368.61,495.258 		"/>
	</g>
</g>
<g opacity="0.15">
	<g>
		<defs>
			<rect id="SVGID_97_" x="437.459" y="403.465" width="45.895" height="45.897"/>
		</defs>
		<clipPath id="SVGID_98_">
			<use xlink:href="#SVGID_97_"  overflow="visible"/>
		</clipPath>
		<polygon clip-path="url(#SVGID_98_)" fill="#F7B661" points="437.457,449.361 437.457,403.464 483.354,426.411 		"/>
	</g>
</g>
<g opacity="0.15">
	<g>
		<defs>
			<rect id="SVGID_99_" x="437.457" y="403.465" width="45.896" height="45.897"/>
		</defs>
		<clipPath id="SVGID_100_">
			<use xlink:href="#SVGID_99_"  overflow="visible"/>
		</clipPath>
		<polygon clip-path="url(#SVGID_100_)" fill="#F7B661" points="483.354,403.465 483.354,449.361 437.457,426.415 		"/>
	</g>
</g>
<g opacity="0.15">
	<g>
		<defs>
			<rect id="SVGID_101_" x="460.406" y="518.201" width="45.896" height="45.896"/>
		</defs>
		<clipPath id="SVGID_102_">
			<use xlink:href="#SVGID_101_"  overflow="visible"/>
		</clipPath>
		
			<rect x="467.128" y="524.923" transform="matrix(-0.7071 -0.7071 0.7071 -0.7071 442.4711 1265.5819)" clip-path="url(#SVGID_102_)" fill="#F7B661" width="32.453" height="32.454"/>
	</g>
</g>
<g opacity="0.15">
	<g>
		<defs>
			<rect id="SVGID_103_" x="460.406" y="518.201" width="45.896" height="45.896"/>
		</defs>
		<clipPath id="SVGID_104_">
			<use xlink:href="#SVGID_103_"  overflow="visible"/>
		</clipPath>
		<polyline clip-path="url(#SVGID_104_)" fill="#F7B661" points="460.406,564.099 460.406,518.202 506.302,564.099 460.406,564.099 
					"/>
	</g>
</g>
<g opacity="0.15">
	<g>
		<defs>
			<rect id="SVGID_105_" x="345.665" y="449.361" width="68.845" height="91.793"/>
		</defs>
		<clipPath id="SVGID_106_">
			<use xlink:href="#SVGID_105_"  overflow="visible"/>
		</clipPath>
		<polygon clip-path="url(#SVGID_106_)" fill="#F7B661" points="391.561,495.258 414.509,472.31 391.561,449.361 		"/>
		<path clip-path="url(#SVGID_106_)" fill="#F7B661" d="M391.561,472.31v-22.947h-22.947
			C381.286,449.362,391.561,459.636,391.561,472.31"/>
		<path clip-path="url(#SVGID_106_)" fill="#F7B661" d="M368.613,495.258c-12.674,0-22.948-10.274-22.948-22.948v22.948
			l22.95,45.896l22.945-45.896l0,0V472.31C391.561,484.983,381.285,495.258,368.613,495.258"/>
		<path clip-path="url(#SVGID_106_)" fill="#F7B661" d="M368.613,449.362h-22.948v22.947
			C345.665,459.636,355.939,449.362,368.613,449.362"/>
	</g>
</g>
</svg>
